{
.appVersion = "895";
copyright = "Copyright 2016 Google Inc. All Rights Reserved.";
customParameters = (
{
name = description;
value = "Designed by Monotype design team.";
},
{
name = license;
value = "This Font Software is licensed under the SIL Open Font License, Version 1.1. This Font Software is distributed on an \"AS IS\" BASIS, WITHOUT WARRANTIES OR CONDITIONS OF ANY KIND, either express or implied. See the SIL Open Font License for the specific language, permissions and limitations governing your use of this Font Software.";
},
{
name = licenseURL;
value = "http://scripts.sil.org/OFL";
},
{
name = vendorID;
value = GOOG;
},
{
name = trademark;
value = "Noto is a trademark of Google Inc.";
},
{
name = fsType;
value = (
);
},
{
name = panose;
value = (
2,
11,
5,
2,
4,
5,
4,
2,
2,
4
);
},
{
name = unicodeRanges;
value = (
93
);
},
{
name = codePageRanges;
value = (
1252
);
},
{
name = glyphOrder;
value = (
.notdef,
null,
uni000D,
space,
uni1900,
uni1901,
uni1902,
uni1903,
uni1904,
uni1905,
uni1906,
uni1907,
uni1908,
uni1909,
uni190A,
uni190B,
uni190C,
uni190D,
uni190E,
uni190F,
uni1910,
uni1911,
uni1912,
uni1913,
uni1914,
uni1915,
uni1916,
uni1917,
uni1918,
uni1919,
uni191A,
uni191B,
uni191C,
uni1920,
uni1921,
uni1922,
uni1923,
uni1924,
uni1925,
uni1926,
uni1927,
uni1928,
uni1929,
uni192A,
uni192B,
uni1930,
uni1931,
uni1932,
uni1933,
uni1934,
uni1935,
uni1936,
uni1937,
uni1938,
uni1939,
uni193A,
uni193B,
uni1940,
uni1944,
uni1945,
uni1946,
uni1947,
uni1948,
uni1949,
uni194A,
uni194B,
uni194C,
uni194D,
uni194E,
uni194F,
danda,
doubledanda,
uni192A1922
);
}
);
date = "2016-11-10 14:32:20 +0000";
designer = "Monotype Design Team";
designerURL = "http://www.monotype.com/studio";
familyName = "Noto Sans Limbu";
features = (
{
code = "sub uni192A uni1922 by uni192A1922;\012";
name = ccmp;
}
);
fontMaster = (
{
ascender = 2189;
capHeight = 1462;
customParameters = (
{
name = typoAscender;
value = 2189;
},
{
name = typoDescender;
value = -600;
},
{

glyphs = (
{
glyphname = .notdef;
lastChange = "2016-11-10 14:32:04 +0000";
layers = (
{
layerId = "FD774C02-F907-4516-A1AC-61C4D0AB20C5";
paths = (
{
closed = 1;
nodes = (
"1034 0 LINE",
"1034 1462 LINE",
"193 1462 LINE",
"193 0 LINE"
);
},
{
closed = 1;
nodes = (
"297 1358 LINE",
"930 1358 LINE",
"930 104 LINE",
"297 104 LINE"
);
}
);
width = 1229;
}
);
note = .notdef;
},
{
glyphname = uni1900;
lastChange = "2016-11-10 14:32:00 +0000";
layers = (
{
layerId = "FD774C02-F907-4516-A1AC-61C4D0AB20C5";
paths = (
{
closed = 1;
nodes = (
"328 94 OFFCURVE",
"505 128 OFFCURVE",
"670 128 CURVE SMOOTH",
"869 128 OFFCURVE",
"989 88 OFFCURVE",
"1077 0 CURVE",
"1231 70 LINE",
"1231 1180 LINE",
"100 1180 LINE",
"50 1032 LINE",
"521 1032 LINE",
"97 555 LINE",
"489 555 LINE",
"10 31 LINE",
"29 -9 LINE"
);
},
{
closed = 1;
nodes = (
"978 242 OFFCURVE",
"832 276 OFFCURVE",
"689 276 CURVE SMOOTH",
"552 276 OFFCURVE",
"395 244 OFFCURVE",
"283 184 CURVE",
"719 662 LINE",
"318 662 LINE",
"656 1032 LINE",
"1067 1032 LINE",
"1067 183 LINE"
);
}
);
width = 1381;
}
);
note = uni1900;
unicode = 1900;
},
{
glyphname = uni1901;
lastChange = "2016-11-10 14:32:00 +0000";
layers = (
{
layerId = "FD774C02-F907-4516-A1AC-61C4D0AB20C5";
paths = (
{
closed = 1;
nodes = (
"1109 0 LINE",
"1159 148 LINE",
"323 148 LINE",
"518 444 OFFCURVE",
"863 850 OFFCURVE",
"1139 1110 CURVE",
"1154 1180 LINE",
"130 1180 LINE",
"80 1032 LINE",
"925 1032 LINE",
"614 751 OFFCURVE",
"391 507 OFFCURVE",
"123 147 CURVE",
"88 0 LINE"
);
}
);
width = 1239;
}
);
note = uni1901;
unicode = 1901;
},
{
glyphname = uni1902;
lastChange = "2016-11-10 14:32:00 +0000";
layers = (
{
layerId = "FD774C02-F907-4516-A1AC-61C4D0AB20C5";
paths = (
{
closed = 1;
nodes = (
"600 -15 OFFCURVE",
"737 54 OFFCURVE",
"853 190 CURVE",
"898 65 OFFCURVE",
"985 -15 OFFCURVE",
"1100 -15 CURVE SMOOTH",
"1137 -15 OFFCURVE",
"1169 -9 OFFCURVE",
"1198 4 CURVE SMOOTH",
"1255 28 OFFCURVE",
"1294 59 OFFCURVE",
"1375 168 CURVE",
"1330 213 LINE",
"1283 160 OFFCURVE",
"1247 133 OFFCURVE",
"1175 133 CURVE SMOOTH",
"1054 133 OFFCURVE",
"990 235 OFFCURVE",
"990 416 CURVE SMOOTH",
"990 500 OFFCURVE",
"1000 576 OFFCURVE",
"1019 644 CURVE SMOOTH",
"1058 780 OFFCURVE",
"1117 883 OFFCURVE",
"1264 1032 CURVE",
"1314 1180 LINE",
"412 1180 LINE",
"191 955 OFFCURVE",
"80 719 OFFCURVE",
"80 472 CURVE SMOOTH",
"80 165 OFFCURVE",
"230 -15 OFFCURVE",
"465 -15 CURVE SMOOTH"
);
},
{
closed = 1;
nodes = (
"337 133 OFFCURVE",
"248 260 OFFCURVE",
"248 514 CURVE SMOOTH",
"248 701 OFFCURVE",
"317 896 OFFCURVE",
"421 1032 CURVE",
"1155 1032 LINE",
"951 848 OFFCURVE",
"822 595 OFFCURVE",
"822 388 CURVE SMOOTH",
"822 351 OFFCURVE",
"825 316 OFFCURVE",
"830 281 CURVE",
"741 182 OFFCURVE",
"637 133 OFFCURVE",
"516 133 CURVE SMOOTH"
);
}
);
width = 1435;
}
);
note = uni1902;
unicode = 1902;
},
{
glyphname = uni1903;
lastChange = "2016-11-10 14:32:00 +0000";
layers = (
{
layerId = "FD774C02-F907-4516-A1AC-61C4D0AB20C5";
paths = (
{
closed = 1;
nodes = (
"702 -15 OFFCURVE",
"773 1 OFFCURVE",
"833 32 CURVE SMOOTH",
"953 94 OFFCURVE",
"1020 205 OFFCURVE",
"1020 337 CURVE SMOOTH",
"1020 498 OFFCURVE",
"917 616 OFFCURVE",
"737 677 CURVE",
"945 862 OFFCURVE",
"1061 1015 OFFCURVE",
"1138 1180 CURVE",
"1014 1180 LINE",
"935 1032 OFFCURVE",
"829 902 OFFCURVE",
"612 709 CURVE",
"526 726 OFFCURVE",
"428 734 OFFCURVE",
"318 734 CURVE",
"299 733 LINE",
"514 1115 LINE",
"532 1180 LINE",
"100 1180 LINE",
"50 1032 LINE",
"370 1032 LINE",
"150 639 LINE",
"138 576 LINE",
"173 583 OFFCURVE",
"210 586 OFFCURVE",
"250 586 CURVE SMOOTH",
"329 586 OFFCURVE",
"398 583 OFFCURVE",
"458 576 CURVE",
"376 501 OFFCURVE",
"321 441 OFFCURVE",
"293 395 CURVE SMOOTH",
"265 349 OFFCURVE",
"251 304 OFFCURVE",
"251 260 CURVE SMOOTH",
"251 83 OFFCURVE",
"377 -15 OFFCURVE",
"621 -15 CURVE SMOOTH"
);
},
{
closed = 1;
nodes = (
"470 133 OFFCURVE",
"383 195 OFFCURVE",
"383 287 CURVE SMOOTH",
"383 320 OFFCURVE",
"397 355 OFFCURVE",
"424 392 CURVE SMOOTH",
"451 429 OFFCURVE",
"506 483 OFFCURVE",
"591 554 CURVE",
"759 515 OFFCURVE",
"852 441 OFFCURVE",
"852 337 CURVE SMOOTH",
"852 210 OFFCURVE",
"758 133 OFFCURVE",
"606 133 CURVE SMOOTH"
);
}
);
width = 1218;
}
);
note = uni1903;
unicode = 1903;
},
{
glyphname = uni1904;
lastChange = "2016-11-10 14:32:00 +0000";
layers = (
{
layerId = "FD774C02-F907-4516-A1AC-61C4D0AB20C5";
paths = (
{
closed = 1;
nodes = (
"1083 40 LINE",
"1083 1180 LINE",
"100 1180 LINE",
"50 1032 LINE",
"212 1032 LINE",
"212 708 LINE SMOOTH",
"212 457 OFFCURVE",
"318 332 OFFCURVE",
"529 332 CURVE SMOOTH",
"670 332 OFFCURVE",
"800 394 OFFCURVE",
"919 517 CURVE",
"919 -10 LINE"
);
},
{
closed = 1;
nodes = (
"534 480 OFFCURVE",
"491 489 OFFCURVE",
"464 507 CURVE SMOOTH",
"410 542 OFFCURVE",
"376 614 OFFCURVE",
"376 750 CURVE SMOOTH",
"376 1032 LINE",
"919 1032 LINE",
"919 627 LINE",
"834 529 OFFCURVE",
"726 480 OFFCURVE",
"593 480 CURVE SMOOTH"
);
}
);
width = 1233;
}
);
note = uni1904;
unicode = 1904;
},
{
glyphname = uni1905;
lastChange = "2016-11-10 14:32:00 +0000";
layers = (
{
layerId = "FD774C02-F907-4516-A1AC-61C4D0AB20C5";
paths = (
{
closed = 1;
nodes = (
"973 -15 OFFCURVE",
"1070 3 OFFCURVE",
"1152 39 CURVE SMOOTH",
"1316 111 OFFCURVE",
"1402 247 OFFCURVE",
"1402 422 CURVE SMOOTH",
"1402 635 OFFCURVE",
"1188 763 OFFCURVE",
"896 763 CURVE",
"1261 1110 LINE",
"1276 1180 LINE",
"397 1180 LINE",
"347 1032 LINE",
"1048 1032 LINE",
"728 726 LINE",
"718 658 LINE",
"783 661 LINE",
"823 664 LINE",
"1095 664 OFFCURVE",
"1234 579 OFFCURVE",
"1234 422 CURVE SMOOTH",
"1234 229 OFFCURVE",
"1100 133 OFFCURVE",
"832 133 CURVE SMOOTH",
"717 133 OFFCURVE",
"608 166 OFFCURVE",
"505 232 CURVE SMOOTH",
"300 364 OFFCURVE",
"182 600 OFFCURVE",
"182 896 CURVE SMOOTH",
"182 987 OFFCURVE",
"185 1011 OFFCURVE",
"194 1058 CURVE",
"95 1088 LINE",
"85 1034 OFFCURVE",
"80 967 OFFCURVE",
"80 886 CURVE SMOOTH",
"80 715 OFFCURVE",
"113 560 OFFCURVE",
"180 423 CURVE SMOOTH",
"312 147 OFFCURVE",
"565 -15 OFFCURVE",
"860 -15 CURVE SMOOTH"
);
},
{
closed = 1;
nodes = (
"1743 704 OFFCURVE",
"1838 809 OFFCURVE",
"1838 962 CURVE SMOOTH",
"1838 1105 OFFCURVE",
"1743 1195 OFFCURVE",
"1603 1195 CURVE SMOOTH",
"1454 1195 OFFCURVE",
"1347 1091 OFFCURVE",
"1347 948 CURVE SMOOTH",
"1347 809 OFFCURVE",
"1455 704 OFFCURVE",
"1598 704 CURVE SMOOTH"
);
},
{
closed = 1;
nodes = (
"1530 827 OFFCURVE",
"1477 877 OFFCURVE",
"1477 953 CURVE SMOOTH",
"1477 1045 OFFCURVE",
"1525 1097 OFFCURVE",
"1610 1097 CURVE SMOOTH",
"1679 1097 OFFCURVE",
"1734 1054 OFFCURVE",
"1734 973 CURVE SMOOTH",
"1734 884 OFFCURVE",
"1690 827 OFFCURVE",
"1607 827 CURVE SMOOTH"
);
}
);
width = 1898;
}
);
note = uni1905;
unicode = 1905;
},
{
glyphname = uni1906;
lastChange = "2016-11-10 14:32:00 +0000";
layers = (
{
layerId = "FD774C02-F907-4516-A1AC-61C4D0AB20C5";
paths = (
{
closed = 1;
nodes = (
"375 87 OFFCURVE",
"460 114 OFFCURVE",
"537 169 CURVE SMOOTH",
"692 278 OFFCURVE",
"788 475 OFFCURVE",
"788 679 CURVE SMOOTH",
"788 994 OFFCURVE",
"565 1180 OFFCURVE",
"206 1180 CURVE SMOOTH",
"100 1180 LINE",
"50 1032 LINE",
"190 1032 LINE SMOOTH",
"477 1032 OFFCURVE",
"620 896 OFFCURVE",
"620 625 CURVE SMOOTH",
"620 454 OFFCURVE",
"580 351 OFFCURVE",
"512 284 CURVE",
"516 326 LINE",
"516 449 OFFCURVE",
"423 538 OFFCURVE",
"294 538 CURVE SMOOTH",
"169 538 OFFCURVE",
"60 435 OFFCURVE",
"60 312 CURVE SMOOTH",
"60 181 OFFCURVE",
"159 87 OFFCURVE",
"284 87 CURVE SMOOTH"
);
},
{
closed = 1;
nodes = (
"243 224 OFFCURVE",
"207 264 OFFCURVE",
"207 328 CURVE SMOOTH",
"207 383 OFFCURVE",
"248 431 OFFCURVE",
"307 431 CURVE SMOOTH",
"363 431 OFFCURVE",
"409 394 OFFCURVE",
"409 327 CURVE SMOOTH",
"409 266 OFFCURVE",
"363 224 OFFCURVE",
"310 224 CURVE SMOOTH"
);
},
{
closed = 1;
nodes = (
"1135 40 LINE",
"1135 1190 LINE",
"971 1140 LINE",
"971 -10 LINE"
);
}
);
width = 1285;
}
);
note = uni1906;
unicode = 1906;
},
{
glyphname = uni1907;
lastChange = "2016-11-10 14:32:00 +0000";
layers = (
{
layerId = "FD774C02-F907-4516-A1AC-61C4D0AB20C5";
paths = (
{
closed = 1;
nodes = (
"707 -15 OFFCURVE",
"782 -2 OFFCURVE",
"856 24 CURVE SMOOTH",
"1004 75 OFFCURVE",
"1155 186 OFFCURVE",
"1235 299 CURVE",
"1178 351 LINE",
"1017 200 OFFCURVE",
"860 133 OFFCURVE",
"627 133 CURVE SMOOTH",
"388 133 OFFCURVE",
"252 260 OFFCURVE",
"252 480 CURVE SMOOTH",
"252 539 OFFCURVE",
"260 593 OFFCURVE",
"276 642 CURVE",
"669 642 LINE",
"507 434 LINE",
"502 393 LINE",
"914 393 LINE",
"999 541 LINE",
"710 541 LINE",
"872 749 LINE",
"877 790 LINE",
"351 790 LINE",
"419 883 OFFCURVE",
"518 964 OFFCURVE",
"649 1032 CURVE",
"1180 1032 LINE",
"1230 1180 LINE",
"130 1180 LINE",
"80 1032 LINE",
"471 1032 LINE",
"222 896 OFFCURVE",
"80 684 OFFCURVE",
"80 463 CURVE SMOOTH",
"80 369 OFFCURVE",
"102 286 OFFCURVE",
"146 213 CURVE SMOOTH",
"233 68 OFFCURVE",
"401 -15 OFFCURVE",
"630 -15 CURVE SMOOTH"
);
}
);
width = 1295;
}
);
note = uni1907;
unicode = 1907;
},
{
glyphname = uni1908;
lastChange = "2016-11-10 14:32:00 +0000";
layers = (
{
layerId = "FD774C02-F907-4516-A1AC-61C4D0AB20C5";
paths = (
{
closed = 1;
nodes = (
"1233 40 LINE",
"1233 1180 LINE",
"100 1180 LINE",
"50 1032 LINE",
"1069 1032 LINE",
"1069 -10 LINE"
);
},
{
closed = 1;
nodes = (
"644 189 OFFCURVE",
"742 218 OFFCURVE",
"815 278 CURVE SMOOTH",
"887 338 OFFCURVE",
"935 429 OFFCURVE",
"935 553 CURVE SMOOTH",
"935 642 OFFCURVE",
"912 727 OFFCURVE",
"836 788 CURVE SMOOTH",
"760 849 OFFCURVE",
"631 889 OFFCURVE",
"416 889 CURVE SMOOTH",
"150 889 LINE",
"100 741 LINE",
"361 741 LINE SMOOTH",
"512 741 OFFCURVE",
"613 730 OFFCURVE",
"677 698 CURVE SMOOTH",
"741 665 OFFCURVE",
"767 609 OFFCURVE",
"767 518 CURVE SMOOTH",
"767 466 OFFCURVE",
"756 409 OFFCURVE",
"722 364 CURVE SMOOTH",
"688 319 OFFCURVE",
"631 287 OFFCURVE",
"543 287 CURVE SMOOTH",
"502 287 OFFCURVE",
"490 299 OFFCURVE",
"477 311 CURVE",
"500 316 OFFCURVE",
"527 329 OFFCURVE",
"548 350 CURVE SMOOTH",
"568 371 OFFCURVE",
"583 401 OFFCURVE",
"583 444 CURVE SMOOTH",
"583 484 OFFCURVE",
"567 519 OFFCURVE",
"543 544 CURVE",
"518 568 OFFCURVE",
"483 583 OFFCURVE",
"444 583 CURVE SMOOTH",
"407 583 OFFCURVE",
"369 567 OFFCURVE",
"341 539 CURVE SMOOTH",
"313 511 OFFCURVE",
"294 469 OFFCURVE",
"294 420 CURVE SMOOTH",
"294 352 OFFCURVE",
"322 294 OFFCURVE",
"368 254 CURVE SMOOTH",
"414 213 OFFCURVE",
"476 189 OFFCURVE",
"547 189 CURVE SMOOTH"
);
}
);
width = 1383;
}
);
note = uni1908;
unicode = 1908;
},
{
glyphname = uni1909;
lastChange = "2016-11-10 14:32:00 +0000";
layers = (
{
layerId = "FD774C02-F907-4516-A1AC-61C4D0AB20C5";
paths = (
{
closed = 1;
nodes = (
"649 -249 OFFCURVE",
"972 -46 OFFCURVE",
"1115 167 CURVE",
"1050 232 LINE",
"933 166 OFFCURVE",
"790 133 OFFCURVE",
"621 133 CURVE SMOOTH",
"372 133 OFFCURVE",
"248 199 OFFCURVE",
"248 331 CURVE SMOOTH",
"248 414 OFFCURVE",
"295 479 OFFCURVE",
"390 528 CURVE",
"432 525 OFFCURVE",
"468 523 OFFCURVE",
"498 523 CURVE SMOOTH",
"659 523 OFFCURVE",
"836 574 OFFCURVE",
"975 657 CURVE",
"925 723 LINE",
"842 683 OFFCURVE",
"683 654 OFFCURVE",
"531 654 CURVE SMOOTH",
"362 654 OFFCURVE",
"248 727 OFFCURVE",
"248 831 CURVE SMOOTH",
"248 963 OFFCURVE",
"360 1032 OFFCURVE",
"563 1032 CURVE SMOOTH",
"944 1032 LINE",
"994 1180 LINE",
"589 1180 LINE SMOOTH",
"501 1180 OFFCURVE",
"418 1162 OFFCURVE",
"340 1125 CURVE SMOOTH",
"183 1052 OFFCURVE",
"80 919 OFFCURVE",
"80 800 CURVE SMOOTH",
"80 675 OFFCURVE",
"142 593 OFFCURVE",
"267 553 CURVE",
"151 480 OFFCURVE",
"80 382 OFFCURVE",
"80 289 CURVE SMOOTH",
"80 82 OFFCURVE",
"240 -15 OFFCURVE",
"557 -15 CURVE SMOOTH",
"638 -15 OFFCURVE",
"722 -3 OFFCURVE",
"808 21 CURVE",
"688 -75 OFFCURVE",
"473 -191 OFFCURVE",
"325 -240 CURVE",
"366 -320 LINE"
);
}
);
width = 1195;
}
);
note = uni1909;
unicode = 1909;
},
{
glyphname = uni190A;
lastChange = "2016-11-10 14:32:00 +0000";
layers = (
{
layerId = "FD774C02-F907-4516-A1AC-61C4D0AB20C5";
paths = (
{
closed = 1;
nodes = (
"540 -15 OFFCURVE",
"621 6 OFFCURVE",
"689 48 CURVE SMOOTH",
"825 131 OFFCURVE",
"900 286 OFFCURVE",
"900 475 CURVE SMOOTH",
"900 575 LINE",
"1004 521 OFFCURVE",
"1103 441 OFFCURVE",
"1196 335 CURVE",
"1121 218 OFFCURVE",
"1045 127 OFFCURVE",
"967 60 CURVE",
"1033 -5 LINE",
"1120 66 OFFCURVE",
"1200 147 OFFCURVE",
"1273 238 CURVE",
"1328 163 OFFCURVE",
"1376 82 OFFCURVE",
"1419 -5 CURVE",
"1512 51 LINE",
"1468 154 OFFCURVE",
"1414 251 OFFCURVE",
"1350 341 CURVE",
"1431 458 OFFCURVE",
"1481 570 OFFCURVE",
"1500 677 CURVE",
"1365 728 LINE",
"1348 644 OFFCURVE",
"1314 552 OFFCURVE",
"1263 452 CURVE",
"1152 579 OFFCURVE",
"1031 673 OFFCURVE",
"900 736 CURVE",
"900 1032 LINE",
"1240 1032 LINE",
"1290 1180 LINE",
"145 1180 LINE",
"95 1032 LINE",
"736 1032 LINE",
"736 792 LINE",
"692 802 OFFCURVE",
"648 807 OFFCURVE",
"603 807 CURVE SMOOTH",
"502 807 OFFCURVE",
"411 787 OFFCURVE",
"330 748 CURVE SMOOTH",
"167 669 OFFCURVE",
"80 527 OFFCURVE",
"80 343 CURVE SMOOTH",
"80 134 OFFCURVE",
"234 -15 OFFCURVE",
"445 -15 CURVE SMOOTH"
);
},
{
closed = 1;
nodes = (
"279 133 OFFCURVE",
"182 216 OFFCURVE",
"182 359 CURVE SMOOTH",
"182 546 OFFCURVE",
"328 659 OFFCURVE",
"581 659 CURVE SMOOTH",
"632 659 OFFCURVE",
"684 652 OFFCURVE",
"736 639 CURVE",
"736 444 LINE SMOOTH",
"736 378 OFFCURVE",
"724 322 OFFCURVE",
"699 276 CURVE SMOOTH",
"650 183 OFFCURVE",
"556 133 OFFCURVE",
"439 133 CURVE SMOOTH"
);
}
);
width = 1592;
}
);
note = uni190A;
unicode = 190A;
},
{
glyphname = uni190B;
lastChange = "2016-11-10 14:32:00 +0000";
layers = (
{
layerId = "FD774C02-F907-4516-A1AC-61C4D0AB20C5";
paths = (
{
closed = 1;
nodes = (
"622 -15 OFFCURVE",
"710 3 OFFCURVE",
"792 38 CURVE SMOOTH",
"955 109 OFFCURVE",
"1053 237 OFFCURVE",
"1053 389 CURVE SMOOTH",
"1053 524 OFFCURVE",
"982 620 OFFCURVE",
"839 677 CURVE",
"926 736 OFFCURVE",
"969 810 OFFCURVE",
"969 901 CURVE SMOOTH",
"969 1084 OFFCURVE",
"813 1195 OFFCURVE",
"554 1195 CURVE SMOOTH",
"366 1195 OFFCURVE",
"209 1118 OFFCURVE",
"83 965 CURVE",
"136 910 LINE",
"237 1001 OFFCURVE",
"371 1047 OFFCURVE",
"536 1047 CURVE SMOOTH",
"700 1047 OFFCURVE",
"797 991 OFFCURVE",
"797 884 CURVE SMOOTH",
"797 813 OFFCURVE",
"769 755 OFFCURVE",
"713 711 CURVE",
"661 720 OFFCURVE",
"601 725 OFFCURVE",
"534 725 CURVE SMOOTH",
"388 725 LINE",
"338 577 LINE",
"479 577 LINE SMOOTH",
"778 577 OFFCURVE",
"885 514 OFFCURVE",
"885 354 CURVE SMOOTH",
"885 300 OFFCURVE",
"870 253 OFFCURVE",
"840 212 CURVE SMOOTH",
"779 131 OFFCURVE",
"660 83 OFFCURVE",
"529 83 CURVE SMOOTH",
"380 83 OFFCURVE",
"214 141 OFFCURVE",
"125 234 CURVE",
"60 158 LINE",
"164 55 OFFCURVE",
"354 -15 OFFCURVE",
"527 -15 CURVE SMOOTH"
);
}
);
width = 1133;
}
);
note = uni190B;
unicode = 190B;
},
{
glyphname = uni190C;
lastChange = "2016-11-10 14:32:00 +0000";
layers = (
{
layerId = "FD774C02-F907-4516-A1AC-61C4D0AB20C5";
paths = (
{
closed = 1;
nodes = (
"540 -15 OFFCURVE",
"621 6 OFFCURVE",
"689 48 CURVE SMOOTH",
"825 131 OFFCURVE",
"900 286 OFFCURVE",
"900 475 CURVE SMOOTH",
"900 624 LINE",
"971 617 OFFCURVE",
"1033 601 OFFCURVE",
"1087 576 CURVE SMOOTH",
"1194 527 OFFCURVE",
"1254 437 OFFCURVE",
"1254 348 CURVE SMOOTH",
"1254 213 OFFCURVE",
"1181 114 OFFCURVE",
"1037 74 CURVE",
"1072 -15 LINE",
"1256 49 OFFCURVE",
"1356 180 OFFCURVE",
"1356 363 CURVE SMOOTH",
"1356 603 OFFCURVE",
"1197 747 OFFCURVE",
"900 772 CURVE",
"900 1180 LINE",
"145 1180 LINE",
"95 1032 LINE",
"736 1032 LINE",
"736 776 LINE",
"329 759 OFFCURVE",
"80 590 OFFCURVE",
"80 329 CURVE SMOOTH",
"80 122 OFFCURVE",
"232 -15 OFFCURVE",
"445 -15 CURVE SMOOTH"
);
},
{
closed = 1;
nodes = (
"386 133 OFFCURVE",
"340 142 OFFCURVE",
"301 159 CURVE SMOOTH",
"224 193 OFFCURVE",
"182 257 OFFCURVE",
"182 329 CURVE SMOOTH",
"182 505 OFFCURVE",
"375 615 OFFCURVE",
"736 628 CURVE",
"736 444 LINE SMOOTH",
"736 378 OFFCURVE",
"724 322 OFFCURVE",
"699 276 CURVE SMOOTH",
"650 183 OFFCURVE",
"556 133 OFFCURVE",
"439 133 CURVE SMOOTH"
);
}
);
width = 1416;
}
);
note = uni190C;
unicode = 190C;
},
{
glyphname = uni190D;
lastChange = "2016-11-10 14:32:00 +0000";
layers = (
{
layerId = "FD774C02-F907-4516-A1AC-61C4D0AB20C5";
paths = (
{
closed = 1;
nodes = (
"983 -15 OFFCURVE",
"1200 155 OFFCURVE",
"1200 403 CURVE SMOOTH",
"1200 631 OFFCURVE",
"1025 765 OFFCURVE",
"737 765 CURVE SMOOTH",
"686 765 OFFCURVE",
"606 754 OFFCURVE",
"573 743 CURVE",
"591 917 LINE",
"607 917 LINE SMOOTH",
"866 917 OFFCURVE",
"1098 963 OFFCURVE",
"1198 1042 CURVE",
"1198 1190 LINE",
"1086 1111 OFFCURVE",
"868 1065 OFFCURVE",
"607 1065 CURVE SMOOTH",
"376 1065 OFFCURVE",
"176 1109 OFFCURVE",
"40 1190 CURVE",
"40 1042 LINE",
"136 975 OFFCURVE",
"285 934 OFFCURVE",
"488 920 CURVE",
"457 654 LINE",
"476 634 LINE",
"533 656 OFFCURVE",
"610 667 OFFCURVE",
"709 667 CURVE SMOOTH",
"776 667 OFFCURVE",
"834 657 OFFCURVE",
"881 636 CURVE SMOOTH",
"976 594 OFFCURVE",
"1028 516 OFFCURVE",
"1028 420 CURVE SMOOTH",
"1028 235 OFFCURVE",
"896 133 OFFCURVE",
"653 133 CURVE SMOOTH",
"418 133 OFFCURVE",
"263 202 OFFCURVE",
"102 351 CURVE",
"45 299 LINE",
"84 244 OFFCURVE",
"138 190 OFFCURVE",
"208 139 CURVE SMOOTH",
"348 35 OFFCURVE",
"498 -15 OFFCURVE",
"650 -15 CURVE SMOOTH"
);
}
);
width = 1280;
}
);
note = uni190D;
unicode = 190D;
},
{
glyphname = uni190E;
lastChange = "2016-11-10 14:32:00 +0000";
layers = (
{
layerId = "FD774C02-F907-4516-A1AC-61C4D0AB20C5";
paths = (
{
closed = 1;
nodes = (
"858 -15 OFFCURVE",
"1073 206 OFFCURVE",
"1117 658 CURVE SMOOTH",
"1133 847 OFFCURVE",
"1195 992 OFFCURVE",
"1312 1124 CURVE",
"1248 1180 LINE",
"1068 981 OFFCURVE",
"988 836 OFFCURVE",
"959 564 CURVE SMOOTH",
"946 447 OFFCURVE",
"928 360 OFFCURVE",
"904 303 CURVE SMOOTH",
"855 189 OFFCURVE",
"742 133 OFFCURVE",
"550 133 CURVE SMOOTH",
"383 133 OFFCURVE",
"298 204 OFFCURVE",
"298 335 CURVE SMOOTH",
"298 422 OFFCURVE",
"353 497 OFFCURVE",
"463 562 CURVE",
"555 573 OFFCURVE",
"671 613 OFFCURVE",
"766 685 CURVE",
"732 744 LINE",
"681 723 OFFCURVE",
"590 708 OFFCURVE",
"501 708 CURVE SMOOTH",
"373 708 OFFCURVE",
"298 769 OFFCURVE",
"298 861 CURVE SMOOTH",
"298 933 OFFCURVE",
"319 977 OFFCURVE",
"371 1032 CURVE",
"780 1032 LINE",
"830 1180 LINE",
"100 1180 LINE",
"50 1032 LINE",
"258 1032 LINE",
"173 953 OFFCURVE",
"130 875 OFFCURVE",
"130 799 CURVE SMOOTH",
"130 692 OFFCURVE",
"215 603 OFFCURVE",
"332 572 CURVE",
"208 492 OFFCURVE",
"130 383 OFFCURVE",
"130 290 CURVE SMOOTH",
"130 109 OFFCURVE",
"284 -15 OFFCURVE",
"501 -15 CURVE SMOOTH"
);
}
);
width = 1392;
}
);
note = uni190E;
unicode = 190E;
},
{
glyphname = uni190F;
lastChange = "2016-11-10 14:32:00 +0000";
layers = (
{
layerId = "FD774C02-F907-4516-A1AC-61C4D0AB20C5";
paths = (
{
closed = 1;
nodes = (
"1109 0 LINE",
"1159 148 LINE",
"323 148 LINE",
"404 271 OFFCURVE",
"509 411 OFFCURVE",
"638 568 CURVE",
"1044 568 LINE",
"1094 675 LINE",
"728 675 LINE",
"867 838 OFFCURVE",
"1004 983 OFFCURVE",
"1139 1110 CURVE",
"1154 1180 LINE",
"130 1180 LINE",
"80 1032 LINE",
"925 1032 LINE",
"614 751 OFFCURVE",
"391 507 OFFCURVE",
"123 147 CURVE",
"88 0 LINE"
);
}
);
width = 1239;
}
);
note = uni190F;
unicode = 190F;
},
{
glyphname = uni1910;
lastChange = "2016-11-10 14:32:00 +0000";
layers = (
{
layerId = "FD774C02-F907-4516-A1AC-61C4D0AB20C5";
paths = (
{
closed = 1;
nodes = (
"550 -15 OFFCURVE",
"642 33 OFFCURVE",
"725 128 CURVE",
"789 32 OFFCURVE",
"896 -15 OFFCURVE",
"1017 -15 CURVE SMOOTH",
"1084 -15 OFFCURVE",
"1152 12 OFFCURVE",
"1219 66 CURVE SMOOTH",
"1354 173 OFFCURVE",
"1450 377 OFFCURVE",
"1450 574 CURVE SMOOTH",
"1450 869 OFFCURVE",
"1327 1095 OFFCURVE",
"1112 1195 CURVE",
"1016 1063 LINE",
"1192 971 OFFCURVE",
"1282 804 OFFCURVE",
"1282 500 CURVE SMOOTH",
"1282 260 OFFCURVE",
"1196 133 OFFCURVE",
"1035 133 CURVE SMOOTH",
"996 133 OFFCURVE",
"961 142 OFFCURVE",
"931 161 CURVE SMOOTH",
"871 198 OFFCURVE",
"828 267 OFFCURVE",
"828 379 CURVE SMOOTH",
"828 510 LINE",
"664 460 LINE",
"664 351 LINE SMOOTH",
"664 306 OFFCURVE",
"669 265 OFFCURVE",
"680 226 CURVE",
"625 164 OFFCURVE",
"558 133 OFFCURVE",
"479 133 CURVE SMOOTH",
"434 133 OFFCURVE",
"394 149 OFFCURVE",
"359 180 CURVE SMOOTH",
"288 242 OFFCURVE",
"248 365 OFFCURVE",
"248 534 CURVE SMOOTH",
"248 620 OFFCURVE",
"260 702 OFFCURVE",
"283 780 CURVE SMOOTH",
"329 935 OFFCURVE",
"412 1062 OFFCURVE",
"509 1131 CURVE",
"466 1190 LINE",
"237 1045 OFFCURVE",
"80 769 OFFCURVE",
"80 501 CURVE SMOOTH",
"80 182 OFFCURVE",
"225 -15 OFFCURVE",
"449 -15 CURVE SMOOTH"
);
}
);
width = 1530;
}
);
note = uni1910;
unicode = 1910;
},
{
glyphname = uni1911;
lastChange = "2016-11-10 14:32:00 +0000";
layers = (
{
layerId = "FD774C02-F907-4516-A1AC-61C4D0AB20C5";
paths = (
{
closed = 1;
nodes = (
"570 -15 OFFCURVE",
"682 98 OFFCURVE",
"787 403 CURVE",
"820 294 OFFCURVE",
"853 211 OFFCURVE",
"887 156 CURVE SMOOTH",
"955 45 OFFCURVE",
"1045 -15 OFFCURVE",
"1166 -15 CURVE SMOOTH",
"1235 -15 OFFCURVE",
"1302 16 OFFCURVE",
"1365 77 CURVE SMOOTH",
"1491 200 OFFCURVE",
"1580 432 OFFCURVE",
"1580 636 CURVE SMOOTH",
"1580 1004 OFFCURVE",
"1455 1195 OFFCURVE",
"1220 1195 CURVE SMOOTH",
"1061 1195 OFFCURVE",
"939 1087 OFFCURVE",
"836 855 CURVE",
"755 1092 OFFCURVE",
"648 1195 OFFCURVE",
"499 1195 CURVE SMOOTH",
"335 1195 OFFCURVE",
"176 1060 OFFCURVE",
"119 871 CURVE",
"233 841 LINE",
"257 985 OFFCURVE",
"321 1057 OFFCURVE",
"424 1057 CURVE SMOOTH",
"523 1057 OFFCURVE",
"588 996 OFFCURVE",
"641 887 CURVE SMOOTH",
"667 832 OFFCURVE",
"699 734 OFFCURVE",
"736 592 CURVE",
"686 447 OFFCURVE",
"648 349 OFFCURVE",
"622 300 CURVE SMOOTH",
"570 200 OFFCURVE",
"514 141 OFFCURVE",
"441 141 CURVE SMOOTH",
"400 141 OFFCURVE",
"366 152 OFFCURVE",
"340 174 CURVE SMOOTH",
"288 218 OFFCURVE",
"262 289 OFFCURVE",
"250 452 CURVE",
"80 476 LINE",
"83 172 OFFCURVE",
"206 -15 OFFCURVE",
"418 -15 CURVE SMOOTH"
);
},
{
closed = 1;
nodes = (
"1117 133 OFFCURVE",
"1052 200 OFFCURVE",
"999 321 CURVE SMOOTH",
"972 382 OFFCURVE",
"940 484 OFFCURVE",
"902 628 CURVE SMOOTH",
"884 695 LINE",
"972 950 OFFCURVE",
"1059 1047 OFFCURVE",
"1178 1047 CURVE SMOOTH",
"1223 1047 OFFCURVE",
"1263 1029 OFFCURVE",
"1298 992 CURVE SMOOTH",
"1369 919 OFFCURVE",
"1412 778 OFFCURVE",
"1412 575 CURVE SMOOTH",
"1412 421 OFFCURVE",
"1395 309 OFFCURVE",
"1362 239 CURVE SMOOTH",
"1328 168 OFFCURVE",
"1277 133 OFFCURVE",
"1209 133 CURVE SMOOTH"
);
}
);
width = 1660;
}
);
note = uni1911;
unicode = 1911;
},
{
glyphname = uni1912;
lastChange = "2016-11-10 14:32:00 +0000";
layers = (
{
layerId = "FD774C02-F907-4516-A1AC-61C4D0AB20C5";
paths = (
{
closed = 1;
nodes = (
"724 -15 OFFCURVE",
"816 4 OFFCURVE",
"905 43 CURVE SMOOTH",
"1082 119 OFFCURVE",
"1180 251 OFFCURVE",
"1180 403 CURVE SMOOTH",
"1180 528 OFFCURVE",
"1071 630 OFFCURVE",
"946 630 CURVE SMOOTH",
"818 630 OFFCURVE",
"722 540 OFFCURVE",
"722 417 CURVE SMOOTH",
"722 313 OFFCURVE",
"792 210 OFFCURVE",
"893 185 CURVE",
"818 150 OFFCURVE",
"729 133 OFFCURVE",
"624 133 CURVE SMOOTH",
"549 133 OFFCURVE",
"480 149 OFFCURVE",
"417 180 CURVE SMOOTH",
"290 243 OFFCURVE",
"228 351 OFFCURVE",
"228 487 CURVE SMOOTH",
"228 736 OFFCURVE",
"389 933 OFFCURVE",
"672 1032 CURVE",
"1091 1032 LINE",
"1141 1180 LINE",
"110 1180 LINE",
"60 1032 LINE",
"489 1032 LINE",
"406 993 OFFCURVE",
"333 945 OFFCURVE",
"268 887 CURVE SMOOTH",
"138 770 OFFCURVE",
"60 627 OFFCURVE",
"60 479 CURVE SMOOTH",
"60 166 OFFCURVE",
"270 -15 OFFCURVE",
"627 -15 CURVE SMOOTH"
);
},
{
closed = 1;
nodes = (
"869 315 OFFCURVE",
"829 360 OFFCURVE",
"829 427 CURVE SMOOTH",
"829 480 OFFCURVE",
"873 523 OFFCURVE",
"933 523 CURVE SMOOTH",
"994 523 OFFCURVE",
"1033 475 OFFCURVE",
"1033 419 CURVE SMOOTH",
"1033 358 OFFCURVE",
"993 315 OFFCURVE",
"936 315 CURVE SMOOTH"
);
}
);
width = 1260;
}
);
note = uni1912;
unicode = 1912;
},
{
glyphname = uni1913;
lastChange = "2016-11-10 14:32:00 +0000";
layers = (
{
layerId = "FD774C02-F907-4516-A1AC-61C4D0AB20C5";
paths = (
{
closed = 1;
nodes = (
"1284 40 LINE",
"1284 1190 LINE",
"1120 1140 LINE",
"1120 533 LINE",
"1035 452 OFFCURVE",
"931 404 OFFCURVE",
"836 404 CURVE SMOOTH",
"725 404 OFFCURVE",
"654 460 OFFCURVE",
"654 553 CURVE SMOOTH",
"654 603 OFFCURVE",
"690 671 OFFCURVE",
"761 758 CURVE SMOOTH",
"833 846 OFFCURVE",
"868 908 OFFCURVE",
"868 960 CURVE SMOOTH",
"868 1113 OFFCURVE",
"757 1193 OFFCURVE",
"570 1193 CURVE SMOOTH",
"491 1193 OFFCURVE",
"411 1165 OFFCURVE",
"330 1108 CURVE SMOOTH",
"168 994 OFFCURVE",
"60 804 OFFCURVE",
"60 623 CURVE SMOOTH",
"60 392 OFFCURVE",
"188 256 OFFCURVE",
"413 256 CURVE SMOOTH",
"486 256 OFFCURVE",
"551 273 OFFCURVE",
"606 306 CURVE",
"660 273 OFFCURVE",
"726 256 OFFCURVE",
"803 256 CURVE SMOOTH",
"915 256 OFFCURVE",
"1013 303 OFFCURVE",
"1120 420 CURVE",
"1120 -10 LINE"
);
},
{
closed = 1;
nodes = (
"286 404 OFFCURVE",
"198 499 OFFCURVE",
"198 686 CURVE SMOOTH",
"198 895 OFFCURVE",
"330 1043 OFFCURVE",
"526 1043 CURVE SMOOTH",
"635 1043 OFFCURVE",
"700 999 OFFCURVE",
"700 923 CURVE SMOOTH",
"700 868 OFFCURVE",
"665 806 OFFCURVE",
"593 726 CURVE SMOOTH",
"522 646 OFFCURVE",
"486 585 OFFCURVE",
"486 530 CURVE SMOOTH",
"486 485 OFFCURVE",
"494 445 OFFCURVE",
"511 410 CURVE",
"491 406 OFFCURVE",
"469 404 OFFCURVE",
"446 404 CURVE SMOOTH"
);
}
);
width = 1434;
}
);
note = uni1913;
unicode = 1913;
},
{
glyphname = uni1914;
lastChange = "2016-11-10 14:32:00 +0000";
layers = (
{
layerId = "FD774C02-F907-4516-A1AC-61C4D0AB20C5";
paths = (
{
closed = 1;
nodes = (
"1175 70 LINE",
"1175 1180 LINE",
"102 1180 LINE",
"52 1032 LINE",
"753 1032 LINE",
"50 378 LINE",
"69 314 LINE",
"436 314 OFFCURVE",
"744 219 OFFCURVE",
"1021 0 CURVE"
);
},
{
closed = 1;
nodes = (
"816 334 OFFCURVE",
"551 443 OFFCURVE",
"299 463 CURVE",
"914 1032 LINE",
"1011 1032 LINE",
"1011 163 LINE"
);
}
);
width = 1325;
}
);
note = uni1914;
unicode = 1914;
},
{
glyphname = uni1915;
lastChange = "2016-11-10 14:32:00 +0000";
layers = (
{
layerId = "FD774C02-F907-4516-A1AC-61C4D0AB20C5";
paths = (
{
closed = 1;
nodes = (
"649 -15 OFFCURVE",
"772 20 OFFCURVE",
"877 91 CURVE",
"960 43 OFFCURVE",
"1041 8 OFFCURVE",
"1118 -15 CURVE",
"1156 70 LINE",
"1094 83 OFFCURVE",
"1028 112 OFFCURVE",
"959 158 CURVE",
"1056 254 OFFCURVE",
"1110 376 OFFCURVE",
"1110 496 CURVE SMOOTH",
"1110 559 OFFCURVE",
"1091 617 OFFCURVE",
"1054 669 CURVE SMOOTH",
"978 772 OFFCURVE",
"836 834 OFFCURVE",
"680 834 CURVE",
"969 1110 LINE",
"984 1180 LINE",
"155 1180 LINE",
"105 1032 LINE",
"756 1032 LINE",
"496 797 LINE",
"486 737 LINE",
"607 743 LINE",
"680 743 OFFCURVE",
"741 732 OFFCURVE",
"790 709 CURVE SMOOTH",
"889 664 OFFCURVE",
"942 582 OFFCURVE",
"942 479 CURVE SMOOTH",
"942 380 OFFCURVE",
"912 301 OFFCURVE",
"852 241 CURVE",
"737 341 LINE SMOOTH",
"594 469 OFFCURVE",
"474 527 OFFCURVE",
"347 527 CURVE SMOOTH",
"198 527 OFFCURVE",
"80 423 OFFCURVE",
"80 278 CURVE SMOOTH",
"80 101 OFFCURVE",
"253 -15 OFFCURVE",
"508 -15 CURVE SMOOTH"
);
},
{
closed = 1;
nodes = (
"427 133 OFFCURVE",
"343 146 OFFCURVE",
"279 173 CURVE SMOOTH",
"214 199 OFFCURVE",
"182 234 OFFCURVE",
"182 278 CURVE SMOOTH",
"182 338 OFFCURVE",
"239 379 OFFCURVE",
"330 379 CURVE SMOOTH",
"417 379 OFFCURVE",
"512 337 OFFCURVE",
"636 250 CURVE SMOOTH",
"747 173 LINE",
"686 146 OFFCURVE",
"614 133 OFFCURVE",
"530 133 CURVE SMOOTH"
);
}
);
width = 1236;
}
);
note = uni1915;
unicode = 1915;
},
{
glyphname = uni1916;
lastChange = "2016-11-10 14:32:00 +0000";
layers = (
{
layerId = "FD774C02-F907-4516-A1AC-61C4D0AB20C5";
paths = (
{
closed = 1;
nodes = (
"286 40 LINE",
"355 190 OFFCURVE",
"464 359 OFFCURVE",
"614 546 CURVE",
"1082 -10 LINE",
"1201 20 LINE",
"688 637 LINE",
"829 804 OFFCURVE",
"982 961 OFFCURVE",
"1149 1110 CURVE",
"1164 1180 LINE",
"110 1180 LINE",
"60 1032 LINE",
"935 1032 LINE",
"515 671 OFFCURVE",
"219 309 OFFCURVE",
"68 -10 CURVE"
);
}
);
width = 1281;
}
);
note = uni1916;
unicode = 1916;
},
{
glyphname = uni1917;
lastChange = "2016-11-10 14:32:00 +0000";
layers = (
{
layerId = "FD774C02-F907-4516-A1AC-61C4D0AB20C5";
paths = (
{
closed = 1;
nodes = (
"1193 40 LINE",
"1193 1190 LINE",
"1172 1195 LINE",
"1039 1108 OFFCURVE",
"808 1045 OFFCURVE",
"595 1045 CURVE SMOOTH",
"448 1045 OFFCURVE",
"311 1098 OFFCURVE",
"216 1190 CURVE",
"85 1102 LINE",
"62 1044 OFFCURVE",
"50 976 OFFCURVE",
"50 898 CURVE SMOOTH",
"50 804 OFFCURVE",
"70 723 OFFCURVE",
"109 655 CURVE SMOOTH",
"187 519 OFFCURVE",
"335 441 OFFCURVE",
"508 441 CURVE SMOOTH",
"660 441 OFFCURVE",
"845 518 OFFCURVE",
"972 634 CURVE",
"926 694 LINE",
"845 633 OFFCURVE",
"699 589 OFFCURVE",
"559 589 CURVE SMOOTH",
"339 589 OFFCURVE",
"218 716 OFFCURVE",
"218 940 CURVE",
"222 1010 LINE",
"353 922 OFFCURVE",
"455 897 OFFCURVE",
"595 897 CURVE SMOOTH",
"719 897 OFFCURVE",
"902 958 OFFCURVE",
"1029 1033 CURVE",
"1029 -10 LINE"
);
}
);
width = 1343;
}
);
note = uni1917;
unicode = 1917;
},
{
glyphname = uni1918;
lastChange = "2016-11-10 14:32:00 +0000";
layers = (
{
layerId = "FD774C02-F907-4516-A1AC-61C4D0AB20C5";
paths = (
{
closed = 1;
nodes = (
"1203 40 LINE",
"1203 1190 LINE",
"1038 1140 LINE",
"1038 552 LINE",
"955 494 OFFCURVE",
"856 465 OFFCURVE",
"743 465 CURVE SMOOTH",
"614 465 OFFCURVE",
"539 543 OFFCURVE",
"539 686 CURVE SMOOTH",
"539 1190 LINE",
"371 1140 LINE",
"0 447 LINE",
"34 323 LINE",
"371 940 LINE",
"371 665 LINE SMOOTH",
"371 474 OFFCURVE",
"482 367 OFFCURVE",
"693 367 CURVE SMOOTH",
"818 367 OFFCURVE",
"971 418 OFFCURVE",
"1038 466 CURVE",
"1038 -10 LINE"
);
}
);
width = 1353;
}
);
note = uni1918;
unicode = 1918;
},
{
glyphname = uni1919;
lastChange = "2016-11-10 14:32:00 +0000";
layers = (
{
layerId = "FD774C02-F907-4516-A1AC-61C4D0AB20C5";
paths = (
{
closed = 1;
nodes = (
"607 -15 OFFCURVE",
"678 7 OFFCURVE",
"738 50 CURVE SMOOTH",
"857 137 OFFCURVE",
"927 312 OFFCURVE",
"927 557 CURVE SMOOTH",
"927 1032 LINE",
"1202 1032 LINE",
"1252 1180 LINE",
"813 1180 LINE",
"763 1032 LINE",
"763 472 LINE SMOOTH",
"763 380 OFFCURVE",
"755 306 OFFCURVE",
"738 249 CURVE SMOOTH",
"704 135 OFFCURVE",
"642 83 OFFCURVE",
"525 83 CURVE SMOOTH",
"380 83 OFFCURVE",
"314 197 OFFCURVE",
"314 434 CURVE SMOOTH",
"314 1190 LINE",
"150 1140 LINE",
"150 447 LINE SMOOTH",
"150 148 OFFCURVE",
"284 -15 OFFCURVE",
"525 -15 CURVE SMOOTH"
);
}
);
width = 1302;
}
);
note = uni1919;
unicode = 1919;
},
{
glyphname = uni191A;
lastChange = "2016-11-10 14:32:00 +0000";
layers = (
{
layerId = "FD774C02-F907-4516-A1AC-61C4D0AB20C5";
paths = (
{
closed = 1;
nodes = (
"917 40 LINE",
"917 1190 LINE",
"768 1126 LINE",
"696 1172 OFFCURVE",
"618 1195 OFFCURVE",
"533 1195 CURVE SMOOTH",
"450 1195 OFFCURVE",
"320 1128 OFFCURVE",
"226 1034 CURVE SMOOTH",
"132 940 OFFCURVE",
"80 826 OFFCURVE",
"80 711 CURVE SMOOTH",
"80 636 OFFCURVE",
"95 572 OFFCURVE",
"124 517 CURVE SMOOTH",
"183 407 OFFCURVE",
"293 346 OFFCURVE",
"422 346 CURVE SMOOTH",
"559 346 OFFCURVE",
"673 419 OFFCURVE",
"753 560 CURVE",
"753 -10 LINE"
);
},
{
closed = 1;
nodes = (
"331 494 OFFCURVE",
"248 591 OFFCURVE",
"248 752 CURVE SMOOTH",
"248 941 OFFCURVE",
"330 1047 OFFCURVE",
"469 1047 CURVE SMOOTH",
"513 1047 OFFCURVE",
"551 1042 OFFCURVE",
"584 1032 CURVE SMOOTH",
"649 1011 OFFCURVE",
"691 984 OFFCURVE",
"751 912 CURVE",
"752 915 LINE",
"752 805 LINE SMOOTH",
"752 609 OFFCURVE",
"646 494 OFFCURVE",
"470 494 CURVE SMOOTH"
);
}
);
width = 1067;
}
);
note = uni191A;
unicode = 191A;
},
{
glyphname = uni191B;
lastChange = "2016-11-10 14:32:00 +0000";
layers = (
{
layerId = "FD774C02-F907-4516-A1AC-61C4D0AB20C5";
paths = (
{
closed = 1;
nodes = (
"1143 40 LINE",
"1143 1180 LINE",
"467 1180 LINE SMOOTH",
"408 1180 OFFCURVE",
"349 1156 OFFCURVE",
"290 1108 CURVE SMOOTH",
"170 1012 OFFCURVE",
"80 837 OFFCURVE",
"80 700 CURVE SMOOTH",
"80 623 OFFCURVE",
"94 559 OFFCURVE",
"122 507 CURVE SMOOTH",
"178 402 OFFCURVE",
"283 346 OFFCURVE",
"415 346 CURVE SMOOTH",
"491 346 OFFCURVE",
"559 369 OFFCURVE",
"620 415 CURVE SMOOTH",
"740 506 OFFCURVE",
"810 671 OFFCURVE",
"810 851 CURVE SMOOTH",
"810 938 OFFCURVE",
"798 998 OFFCURVE",
"773 1032 CURVE",
"979 1032 LINE",
"979 -10 LINE"
);
},
{
closed = 1;
nodes = (
"401 494 OFFCURVE",
"370 504 OFFCURVE",
"341 525 CURVE SMOOTH",
"283 565 OFFCURVE",
"248 637 OFFCURVE",
"248 738 CURVE SMOOTH",
"248 923 OFFCURVE",
"311 1032 OFFCURVE",
"412 1032 CURVE SMOOTH",
"600 1032 LINE",
"633 993 OFFCURVE",
"658 883 OFFCURVE",
"658 800 CURVE SMOOTH",
"658 605 OFFCURVE",
"577 494 OFFCURVE",
"434 494 CURVE SMOOTH"
);
}
);
width = 1293;
}
);
note = uni191B;
unicode = 191B;
},
{
glyphname = uni191C;
lastChange = "2016-11-10 14:32:00 +0000";
layers = (
{
layerId = "FD774C02-F907-4516-A1AC-61C4D0AB20C5";
paths = (
{
closed = 1;
nodes = (
"769 -15 OFFCURVE",
"844 -2 OFFCURVE",
"917 23 CURVE SMOOTH",
"1063 73 OFFCURVE",
"1206 183 OFFCURVE",
"1289 299 CURVE",
"1232 351 LINE",
"1068 199 OFFCURVE",
"919 133 OFFCURVE",
"691 133 CURVE SMOOTH",
"422 133 OFFCURVE",
"252 303 OFFCURVE",
"252 567 CURVE SMOOTH",
"252 645 OFFCURVE",
"265 717 OFFCURVE",
"291 784 CURVE SMOOTH",
"343 917 OFFCURVE",
"439 1011 OFFCURVE",
"536 1032 CURVE",
"962 1032 LINE",
"567 672 LINE",
"545 564 LINE",
"666 570 LINE",
"866 570 OFFCURVE",
"1018 536 OFFCURVE",
"1121 467 CURVE",
"1194 614 LINE",
"1101 665 OFFCURVE",
"888 709 OFFCURVE",
"751 709 CURVE",
"1175 1110 LINE",
"1190 1180 LINE",
"688 1180 LINE",
"577 1164 OFFCURVE",
"476 1126 OFFCURVE",
"383 1065 CURVE SMOOTH",
"197 943 OFFCURVE",
"80 742 OFFCURVE",
"80 549 CURVE SMOOTH",
"80 196 OFFCURVE",
"311 -15 OFFCURVE",
"694 -15 CURVE SMOOTH"
);
}
);
width = 1349;
}
);
note = uni191C;
unicode = 191C;
},
{
glyphname = uni1920;
lastChange = "2016-11-10 14:32:00 +0000";
layers = (
{
layerId = "FD774C02-F907-4516-A1AC-61C4D0AB20C5";
paths = (
{
closed = 1;
nodes = (
"-130 1340 LINE",
"-80 1478 LINE",
"-595 1478 LINE",
"-582 1510 OFFCURVE",
"-576 1545 OFFCURVE",
"-576 1584 CURVE SMOOTH",
"-576 1707 OFFCURVE",
"-669 1791 OFFCURVE",
"-798 1791 CURVE SMOOTH",
"-925 1791 OFFCURVE",
"-1032 1689 OFFCURVE",
"-1032 1564 CURVE SMOOTH",
"-1032 1439 OFFCURVE",
"-933 1340 OFFCURVE",
"-808 1340 CURVE SMOOTH"
);
},
{
closed = 1;
nodes = (
"-849 1478 OFFCURVE",
"-885 1521 OFFCURVE",
"-885 1588 CURVE SMOOTH",
"-885 1641 OFFCURVE",
"-842 1685 OFFCURVE",
"-791 1685 CURVE SMOOTH",
"-726 1685 OFFCURVE",
"-683 1645 OFFCURVE",
"-683 1586 CURVE SMOOTH",
"-683 1519 OFFCURVE",
"-722 1478 OFFCURVE",
"-782 1478 CURVE SMOOTH"
);
}
);
width = 0;
}
);
note = uni1920;
unicode = 1920;
},
{
glyphname = uni1921;
lastChange = "2016-11-10 14:32:00 +0000";
layers = (
{
layerId = "FD774C02-F907-4516-A1AC-61C4D0AB20C5";
paths = (
{
closed = 1;
nodes = (
"283 1032 LINE",
"333 1180 LINE",
"103 1180 LINE",
"126 1219 OFFCURVE",
"145 1311 OFFCURVE",
"145 1400 CURVE SMOOTH",
"145 1601 OFFCURVE",
"-14 1717 OFFCURVE",
"-282 1717 CURVE SMOOTH",
"-553 1717 OFFCURVE",
"-708 1606 OFFCURVE",
"-708 1415 CURVE SMOOTH",
"-708 1358 OFFCURVE",
"-692 1306 OFFCURVE",
"-659 1259 CURVE",
"-558 1287 LINE",
"-590 1323 OFFCURVE",
"-606 1364 OFFCURVE",
"-606 1411 CURVE SMOOTH",
"-606 1514 OFFCURVE",
"-490 1569 OFFCURVE",
"-282 1569 CURVE SMOOTH",
"-165 1569 OFFCURVE",
"-90 1554 OFFCURVE",
"-38 1527 CURVE SMOOTH",
"13 1499 OFFCURVE",
"43 1460 OFFCURVE",
"43 1381 CURVE SMOOTH",
"43 1284 OFFCURVE",
"5 1168 OFFCURVE",
"-70 1032 CURVE"
);
}
);
width = 0;
}
);
note = uni1921;
unicode = 1921;
},
{
glyphname = uni1922;
lastChange = "2016-11-10 14:32:00 +0000";
layers = (
{
layerId = "FD774C02-F907-4516-A1AC-61C4D0AB20C5";
paths = (
{
closed = 1;
nodes = (
"-624 -504 OFFCURVE",
"-345 -314 OFFCURVE",
"-160 10 CURVE",
"-240 0 LINE",
"-405 -211 OFFCURVE",
"-627 -336 OFFCURVE",
"-872 -356 CURVE",
"-863 -331 OFFCURVE",
"-859 -306 OFFCURVE",
"-859 -279 CURVE SMOOTH",
"-859 -180 OFFCURVE",
"-938 -100 OFFCURVE",
"-1037 -100 CURVE SMOOTH",
"-1146 -100 OFFCURVE",
"-1226 -182 OFFCURVE",
"-1226 -287 CURVE SMOOTH",
"-1226 -423 OFFCURVE",
"-1114 -504 OFFCURVE",
"-917 -504 CURVE SMOOTH"
);
},
{
closed = 1;
nodes = (
"-1084 -360 OFFCURVE",
"-1119 -325 OFFCURVE",
"-1119 -284 CURVE SMOOTH",
"-1119 -241 OFFCURVE",
"-1084 -207 OFFCURVE",
"-1043 -207 CURVE SMOOTH",
"-1000 -207 OFFCURVE",
"-966 -241 OFFCURVE",
"-966 -284 CURVE SMOOTH",
"-966 -325 OFFCURVE",
"-1000 -360 OFFCURVE",
"-1043 -360 CURVE SMOOTH"
);
}
);
width = 0;
}
);
note = uni1922;
unicode = 1922;
},
{
glyphname = uni1923;
lastChange = "2016-11-10 14:32:00 +0000";
layers = (
{
layerId = "FD774C02-F907-4516-A1AC-61C4D0AB20C5";
paths = (
{
closed = 1;
nodes = (
"381 349 OFFCURVE",
"536 643 OFFCURVE",
"536 867 CURVE SMOOTH",
"536 1079 OFFCURVE",
"436 1195 OFFCURVE",
"257 1195 CURVE SMOOTH",
"126 1195 OFFCURVE",
"27 1096 OFFCURVE",
"27 963 CURVE SMOOTH",
"27 844 OFFCURVE",
"124 744 OFFCURVE",
"247 744 CURVE SMOOTH",
"283 744 OFFCURVE",
"314 749 OFFCURVE",
"341 760 CURVE",
"324 543 OFFCURVE",
"206 279 OFFCURVE",
"10 20 CURVE",
"70 -15 LINE"
);
},
{
closed = 1;
nodes = (
"184 851 OFFCURVE",
"134 902 OFFCURVE",
"134 969 CURVE SMOOTH",
"134 1036 OFFCURVE",
"188 1088 OFFCURVE",
"252 1088 CURVE SMOOTH",
"316 1088 OFFCURVE",
"371 1034 OFFCURVE",
"371 969 CURVE SMOOTH",
"371 905 OFFCURVE",
"320 851 OFFCURVE",
"252 851 CURVE SMOOTH"
);
}
);
width = 586;
}
);
note = uni1923;
unicode = 1923;
},
{
glyphname = uni1924;
lastChange = "2016-11-10 14:32:00 +0000";
layers = (
{
layerId = "FD774C02-F907-4516-A1AC-61C4D0AB20C5";
paths = (
{
closed = 1;
nodes = (
"879 315 OFFCURVE",
"1099 600 OFFCURVE",
"1099 867 CURVE SMOOTH",
"1099 1079 OFFCURVE",
"999 1195 OFFCURVE",
"820 1195 CURVE SMOOTH",
"689 1195 OFFCURVE",
"590 1096 OFFCURVE",
"590 963 CURVE SMOOTH",
"590 835 OFFCURVE",
"686 739 OFFCURVE",
"810 739 CURVE SMOOTH",
"846 739 OFFCURVE",
"877 744 OFFCURVE",
"904 755 CURVE",
"889 574 OFFCURVE",
"684 303 OFFCURVE",
"355 36 CURVE",
"404 -14 LINE"
);
},
{
closed = 1;
nodes = (
"381 349 OFFCURVE",
"536 643 OFFCURVE",
"536 867 CURVE SMOOTH",
"536 1079 OFFCURVE",
"436 1195 OFFCURVE",
"257 1195 CURVE SMOOTH",
"126 1195 OFFCURVE",
"27 1096 OFFCURVE",
"27 963 CURVE SMOOTH",
"27 835 OFFCURVE",
"123 739 OFFCURVE",
"247 739 CURVE SMOOTH",
"283 739 OFFCURVE",
"314 744 OFFCURVE",
"341 755 CURVE",
"326 555 OFFCURVE",
"219 297 OFFCURVE",
"10 20 CURVE",
"70 -15 LINE"
);
},
{
closed = 1;
nodes = (
"179 837 OFFCURVE",
"129 893 OFFCURVE",
"129 966 CURVE SMOOTH",
"129 1041 OFFCURVE",
"182 1097 OFFCURVE",
"250 1097 CURVE SMOOTH",
"323 1097 OFFCURVE",
"368 1039 OFFCURVE",
"368 964 CURVE SMOOTH",
"368 889 OFFCURVE",
"316 837 OFFCURVE",
"247 837 CURVE SMOOTH"
);
},
{
closed = 1;
nodes = (
"742 837 OFFCURVE",
"692 893 OFFCURVE",
"692 966 CURVE SMOOTH",
"692 1041 OFFCURVE",
"745 1097 OFFCURVE",
"813 1097 CURVE SMOOTH",
"886 1097 OFFCURVE",
"931 1039 OFFCURVE",
"931 964 CURVE SMOOTH",
"931 889 OFFCURVE",
"879 837 OFFCURVE",
"810 837 CURVE SMOOTH"
);
}
);
width = 1149;
}
);
note = uni1924;
unicode = 1924;
},
{
glyphname = uni1925;
lastChange = "2016-11-10 14:32:00 +0000";
layers = (
{
layerId = "FD774C02-F907-4516-A1AC-61C4D0AB20C5";
paths = (
{
closed = 1;
nodes = (
"381 349 OFFCURVE",
"536 643 OFFCURVE",
"536 867 CURVE SMOOTH",
"536 1079 OFFCURVE",
"436 1195 OFFCURVE",
"257 1195 CURVE SMOOTH",
"126 1195 OFFCURVE",
"27 1096 OFFCURVE",
"27 963 CURVE SMOOTH",
"27 835 OFFCURVE",
"123 739 OFFCURVE",
"247 739 CURVE SMOOTH",
"283 739 OFFCURVE",
"314 744 OFFCURVE",
"341 755 CURVE",
"326 555 OFFCURVE",
"219 297 OFFCURVE",
"10 20 CURVE",
"70 -15 LINE"
);
},
{
closed = 1;
nodes = (
"-819 1478 OFFCURVE",
"-855 1521 OFFCURVE",
"-855 1588 CURVE SMOOTH",
"-855 1641 OFFCURVE",
"-812 1685 OFFCURVE",
"-761 1685 CURVE SMOOTH",
"-696 1685 OFFCURVE",
"-653 1645 OFFCURVE",
"-653 1586 CURVE SMOOTH",
"-653 1519 OFFCURVE",
"-692 1478 OFFCURVE",
"-752 1478 CURVE SMOOTH"
);
},
{
closed = 1;
nodes = (
"-100 1340 LINE",
"-50 1478 LINE",
"-565 1478 LINE",
"-552 1510 OFFCURVE",
"-546 1545 OFFCURVE",
"-546 1584 CURVE SMOOTH",
"-546 1707 OFFCURVE",
"-639 1791 OFFCURVE",
"-768 1791 CURVE SMOOTH",
"-895 1791 OFFCURVE",
"-1002 1689 OFFCURVE",
"-1002 1564 CURVE SMOOTH",
"-1002 1439 OFFCURVE",
"-903 1340 OFFCURVE",
"-778 1340 CURVE SMOOTH"
);
},
{
closed = 1;
nodes = (
"179 837 OFFCURVE",
"129 893 OFFCURVE",
"129 966 CURVE SMOOTH",
"129 1041 OFFCURVE",
"182 1097 OFFCURVE",
"250 1097 CURVE SMOOTH",
"323 1097 OFFCURVE",
"368 1039 OFFCURVE",
"368 964 CURVE SMOOTH",
"368 889 OFFCURVE",
"316 837 OFFCURVE",
"247 837 CURVE SMOOTH"
);
}
);
width = 586;
}
);
note = uni1925;
unicode = 1925;
},
{
glyphname = uni1926;
lastChange = "2016-11-10 14:32:00 +0000";
layers = (
{
layerId = "FD774C02-F907-4516-A1AC-61C4D0AB20C5";
paths = (
{
closed = 1;
nodes = (
"879 315 OFFCURVE",
"1099 600 OFFCURVE",
"1099 867 CURVE SMOOTH",
"1099 1079 OFFCURVE",
"999 1195 OFFCURVE",
"820 1195 CURVE SMOOTH",
"689 1195 OFFCURVE",
"590 1096 OFFCURVE",
"590 963 CURVE SMOOTH",
"590 835 OFFCURVE",
"686 739 OFFCURVE",
"810 739 CURVE SMOOTH",
"846 739 OFFCURVE",
"877 744 OFFCURVE",
"904 755 CURVE",
"889 574 OFFCURVE",
"684 303 OFFCURVE",
"355 36 CURVE",
"404 -14 LINE"
);
},
{
closed = 1;
nodes = (
"-819 1478 OFFCURVE",
"-855 1521 OFFCURVE",
"-855 1588 CURVE SMOOTH",
"-855 1641 OFFCURVE",
"-812 1685 OFFCURVE",
"-761 1685 CURVE SMOOTH",
"-696 1685 OFFCURVE",
"-653 1645 OFFCURVE",
"-653 1586 CURVE SMOOTH",
"-653 1519 OFFCURVE",
"-692 1478 OFFCURVE",
"-752 1478 CURVE SMOOTH"
);
},
{
closed = 1;
nodes = (
"381 349 OFFCURVE",
"536 643 OFFCURVE",
"536 867 CURVE SMOOTH",
"536 1079 OFFCURVE",
"436 1195 OFFCURVE",
"257 1195 CURVE SMOOTH",
"126 1195 OFFCURVE",
"27 1096 OFFCURVE",
"27 963 CURVE SMOOTH",
"27 835 OFFCURVE",
"123 739 OFFCURVE",
"247 739 CURVE SMOOTH",
"283 739 OFFCURVE",
"314 744 OFFCURVE",
"341 755 CURVE",
"326 555 OFFCURVE",
"219 297 OFFCURVE",
"10 20 CURVE",
"70 -15 LINE"
);
},
{
closed = 1;
nodes = (
"-100 1340 LINE",
"-50 1478 LINE",
"-565 1478 LINE",
"-552 1510 OFFCURVE",
"-546 1545 OFFCURVE",
"-546 1584 CURVE SMOOTH",
"-546 1707 OFFCURVE",
"-639 1791 OFFCURVE",
"-768 1791 CURVE SMOOTH",
"-895 1791 OFFCURVE",
"-1002 1689 OFFCURVE",
"-1002 1564 CURVE SMOOTH",
"-1002 1439 OFFCURVE",
"-903 1340 OFFCURVE",
"-778 1340 CURVE SMOOTH"
);
},
{
closed = 1;
nodes = (
"179 837 OFFCURVE",
"129 893 OFFCURVE",
"129 966 CURVE SMOOTH",
"129 1041 OFFCURVE",
"182 1097 OFFCURVE",
"250 1097 CURVE SMOOTH",
"323 1097 OFFCURVE",
"368 1039 OFFCURVE",
"368 964 CURVE SMOOTH",
"368 889 OFFCURVE",
"316 837 OFFCURVE",
"247 837 CURVE SMOOTH"
);
},
{
closed = 1;
nodes = (
"742 837 OFFCURVE",
"692 893 OFFCURVE",
"692 966 CURVE SMOOTH",
"692 1041 OFFCURVE",
"745 1097 OFFCURVE",
"813 1097 CURVE SMOOTH",
"886 1097 OFFCURVE",
"931 1039 OFFCURVE",
"931 964 CURVE SMOOTH",
"931 889 OFFCURVE",
"879 837 OFFCURVE",
"810 837 CURVE SMOOTH"
);
}
);
width = 1149;
}
);
note = uni1926;
unicode = 1926;
},
{
glyphname = uni1927;
lastChange = "2016-11-10 14:32:00 +0000";
layers = (
{
layerId = "FD774C02-F907-4516-A1AC-61C4D0AB20C5";
paths = (
{
closed = 1;
nodes = (
"-317 1449 LINE",
"-940 1784 LINE",
"-996 1685 LINE",
"-386 1330 LINE"
);
}
);
width = 0;
}
);
note = uni1927;
unicode = 1927;
},
{
glyphname = uni1928;
lastChange = "2016-11-10 14:32:00 +0000";
layers = (
{
layerId = "FD774C02-F907-4516-A1AC-61C4D0AB20C5";
paths = (
{
closed = 1;
nodes = (
"-605 1340 LINE",
"-514 1411 LINE SMOOTH",
"-353 1539 OFFCURVE",
"-205 1640 OFFCURVE",
"-68 1713 CURVE",
"-105 1779 LINE",
"-256 1711 OFFCURVE",
"-427 1617 OFFCURVE",
"-620 1496 CURVE",
"-657 1664 OFFCURVE",
"-759 1764 OFFCURVE",
"-907 1764 CURVE SMOOTH",
"-964 1764 OFFCURVE",
"-1016 1748 OFFCURVE",
"-1063 1715 CURVE",
"-1035 1628 LINE",
"-1006 1653 OFFCURVE",
"-965 1666 OFFCURVE",
"-911 1666 CURVE SMOOTH",
"-810 1666 OFFCURVE",
"-753 1544 OFFCURVE",
"-753 1340 CURVE"
);
}
);
width = 0;
}
);
note = uni1928;
unicode = 1928;
},
{
glyphname = uni1929;
lastChange = "2016-11-10 14:32:00 +0000";
layers = (
{
layerId = "FD774C02-F907-4516-A1AC-61C4D0AB20C5";
paths = (
{
closed = 1;
nodes = (
"347 -75 OFFCURVE",
"418 -19 OFFCURVE",
"494 104 CURVE SMOOTH",
"543 184 OFFCURVE",
"580 240 OFFCURVE",
"605 271 CURVE SMOOTH",
"630 302 OFFCURVE",
"657 324 OFFCURVE",
"684 337 CURVE",
"674 414 LINE",
"601 397 OFFCURVE",
"535 334 OFFCURVE",
"466 226 CURVE SMOOTH",
"427 166 OFFCURVE",
"397 126 OFFCURVE",
"374 105 CURVE SMOOTH",
"351 84 OFFCURVE",
"328 73 OFFCURVE",
"305 73 CURVE SMOOTH",
"289 73 OFFCURVE",
"276 82 OFFCURVE",
"266 100 CURVE",
"255 118 OFFCURVE",
"245 149 OFFCURVE",
"235 194 CURVE SMOOTH",
"216 274 OFFCURVE",
"186 314 OFFCURVE",
"145 314 CURVE SMOOTH",
"61 314 OFFCURVE",
"-103 200 OFFCURVE",
"-199 84 CURVE",
"-138 21 LINE",
"-90 68 LINE SMOOTH",
"-25 133 OFFCURVE",
"20 166 OFFCURVE",
"45 166 CURVE SMOOTH",
"62 166 OFFCURVE",
"76 158 OFFCURVE",
"85 143 CURVE SMOOTH",
"94 128 OFFCURVE",
"105 95 OFFCURVE",
"118 46 CURVE SMOOTH",
"139 -35 OFFCURVE",
"186 -75 OFFCURVE",
"260 -75 CURVE SMOOTH"
);
}
);
width = 734;
}
);
note = uni1929;
unicode = 1929;
},
{
glyphname = uni192A;
lastChange = "2016-11-10 14:32:00 +0000";
layers = (
{
layerId = "FD774C02-F907-4516-A1AC-61C4D0AB20C5";
paths = (
{
closed = 1;
nodes = (
"348 -269 LINE",
"227 -225 OFFCURVE",
"133 -100 OFFCURVE",
"113 47 CURVE",
"73 66 LINE",
"-96 -119 OFFCURVE",
"-211 -240 OFFCURVE",
"-271 -298 CURVE",
"-210 -361 LINE",
"-167 -320 OFFCURVE",
"-62 -208 OFFCURVE",
"5 -127 CURVE",
"52 -271 OFFCURVE",
"155 -378 OFFCURVE",
"268 -413 CURVE"
);
}
);
width = 0;
}
);
note = uni192A;
unicode = 192A;
},
{
glyphname = uni192B;
lastChange = "2016-11-10 14:15:21 +0000";
layers = (
{
layerId = "FD774C02-F907-4516-A1AC-61C4D0AB20C5";
paths = (
{
closed = 1;
nodes = (
"739 40 LINE",
"739 655 LINE",
"574 605 LINE",
"574 259 LINE",
"481 202 OFFCURVE",
"390 173 OFFCURVE",
"299 173 CURVE SMOOTH",
"262 173 OFFCURVE",
"247 184 OFFCURVE",
"247 224 CURVE SMOOTH",
"247 253 OFFCURVE",
"275 302 OFFCURVE",
"303 355 CURVE SMOOTH",
"331 407 OFFCURVE",
"359 465 OFFCURVE",
"359 513 CURVE SMOOTH",
"359 599 OFFCURVE",
"315 642 OFFCURVE",
"226 642 CURVE SMOOTH",
"135 642 OFFCURVE",
"-32 530 OFFCURVE",
"-119 425 CURVE",
"-58 362 LINE",
"17 433 OFFCURVE",
"125 507 OFFCURVE",
"158 507 CURVE SMOOTH",
"195 507 OFFCURVE",
"214 488 OFFCURVE",
"214 449 CURVE SMOOTH",
"214 418 OFFCURVE",
"186 372 OFFCURVE",
"158 324 CURVE SMOOTH",
"130 275 OFFCURVE",
"102 225 OFFCURVE",
"102 186 CURVE SMOOTH",
"102 113 OFFCURVE",
"169 65 OFFCURVE",
"262 65 CURVE SMOOTH",
"337 65 OFFCURVE",
"420 90 OFFCURVE",
"509 139 CURVE SMOOTH",
"574 175 LINE",
"574 -10 LINE"
);
}
);
width = 839;
}
);
note = uni192B;
unicode = 192B;
},
{
glyphname = uni1930;
lastChange = "2016-11-10 14:32:00 +0000";
layers = (
{
layerId = "FD774C02-F907-4516-A1AC-61C4D0AB20C5";
paths = (
{
closed = 1;
nodes = (
"651 439 OFFCURVE",
"808 503 OFFCURVE",
"971 630 CURVE",
"931 681 LINE",
"824 626 OFFCURVE",
"672 587 OFFCURVE",
"525 587 CURVE SMOOTH",
"338 587 OFFCURVE",
"244 663 OFFCURVE",
"244 800 CURVE SMOOTH",
"244 873 OFFCURVE",
"292 956 OFFCURVE",
"421 1032 CURVE",
"970 1032 LINE",
"1020 1180 LINE",
"90 1180 LINE",
"40 1032 LINE",
"281 1032 LINE",
"153 961 OFFCURVE",
"76 863 OFFCURVE",
"76 759 CURVE SMOOTH",
"76 558 OFFCURVE",
"251 439 OFFCURVE",
"499 439 CURVE SMOOTH"
);
}
);
width = 1120;
}
);
note = uni1930;
unicode = 1930;
},
{
glyphname = uni1931;
lastChange = "2016-11-10 14:32:00 +0000";
layers = (
{
layerId = "FD774C02-F907-4516-A1AC-61C4D0AB20C5";
paths = (
{
closed = 1;
nodes = (
"389 -15 OFFCURVE",
"491 96 OFFCURVE",
"491 243 CURVE SMOOTH",
"491 386 OFFCURVE",
"396 476 OFFCURVE",
"256 476 CURVE SMOOTH",
"107 476 OFFCURVE",
"0 372 OFFCURVE",
"0 229 CURVE SMOOTH",
"0 85 OFFCURVE",
"104 -15 OFFCURVE",
"244 -15 CURVE SMOOTH"
);
},
{
closed = 1;
nodes = (
"187 112 OFFCURVE",
"134 162 OFFCURVE",
"134 238 CURVE SMOOTH",
"134 319 OFFCURVE",
"178 374 OFFCURVE",
"257 374 CURVE SMOOTH",
"333 374 OFFCURVE",
"383 324 OFFCURVE",
"383 249 CURVE SMOOTH",
"383 168 OFFCURVE",
"339 112 OFFCURVE",
"264 112 CURVE SMOOTH"
);
}
);
width = 541;
}
);
note = uni1931;
unicode = 1931;
},
{
glyphname = uni1932;
lastChange = "2016-11-10 14:32:00 +0000";
layers = (
{
layerId = "FD774C02-F907-4516-A1AC-61C4D0AB20C5";
paths = (
{
closed = 1;
nodes = (
"-242 -591 OFFCURVE",
"-140 -480 OFFCURVE",
"-140 -333 CURVE SMOOTH",
"-140 -190 OFFCURVE",
"-235 -100 OFFCURVE",
"-375 -100 CURVE SMOOTH",
"-524 -100 OFFCURVE",
"-631 -204 OFFCURVE",
"-631 -347 CURVE SMOOTH",
"-631 -491 OFFCURVE",
"-527 -591 OFFCURVE",
"-387 -591 CURVE SMOOTH"
);
},
{
closed = 1;
nodes = (
"-444 -464 OFFCURVE",
"-497 -414 OFFCURVE",
"-497 -338 CURVE SMOOTH",
"-497 -257 OFFCURVE",
"-451 -202 OFFCURVE",
"-372 -202 CURVE SMOOTH",
"-303 -202 OFFCURVE",
"-248 -245 OFFCURVE",
"-248 -326 CURVE SMOOTH",
"-248 -410 OFFCURVE",
"-295 -464 OFFCURVE",
"-367 -464 CURVE SMOOTH"
);
}
);
width = 0;
}
);
note = uni1932;
unicode = 1932;
},
{
glyphname = uni1933;
lastChange = "2016-11-10 14:15:21 +0000";
layers = (
{
layerId = "FD774C02-F907-4516-A1AC-61C4D0AB20C5";
paths = (
{
closed = 1;
nodes = (
"-109 -225 OFFCURVE",
"6 -163 OFFCURVE",
"142 -163 CURVE SMOOTH",
"254 -163 OFFCURVE",
"331 -215 OFFCURVE",
"374 -318 CURVE",
"503 -186 LINE",
"434 -71 OFFCURVE",
"324 -15 OFFCURVE",
"193 -15 CURVE SMOOTH",
"29 -15 OFFCURVE",
"-119 -109 OFFCURVE",
"-250 -298 CURVE",
"-202 -348 LINE"
);
}
);
width = 553;
}
);
note = uni1933;
unicode = 1933;
},
{
glyphname = uni1934;
lastChange = "2016-11-10 14:32:00 +0000";
layers = (
{
layerId = "FD774C02-F907-4516-A1AC-61C4D0AB20C5";
paths = (
{
closed = 1;
nodes = (
"780 427 OFFCURVE",
"926 537 OFFCURVE",
"926 716 CURVE SMOOTH",
"926 856 OFFCURVE",
"825 953 OFFCURVE",
"689 953 CURVE SMOOTH",
"534 953 OFFCURVE",
"433 859 OFFCURVE",
"433 726 CURVE SMOOTH",
"433 671 OFFCURVE",
"447 620 OFFCURVE",
"476 575 CURVE",
"337 588 OFFCURVE",
"248 642 OFFCURVE",
"188 714 CURVE SMOOTH",
"127 786 OFFCURVE",
"94 877 OFFCURVE",
"67 965 CURVE SMOOTH",
"40 1052 OFFCURVE",
"18 1136 OFFCURVE",
"-19 1195 CURVE",
"-72 1095 LINE",
"-63 1084 OFFCURVE",
"-56 1067 OFFCURVE",
"-50 1042 CURVE SMOOTH",
"-44 1017 OFFCURVE",
"-37 987 OFFCURVE",
"-29 954 CURVE SMOOTH",
"22 730 OFFCURVE",
"89 619 OFFCURVE",
"181 544 CURVE SMOOTH",
"273 469 OFFCURVE",
"397 427 OFFCURVE",
"561 427 CURVE SMOOTH"
);
},
{
closed = 1;
nodes = (
"592 596 OFFCURVE",
"535 653 OFFCURVE",
"535 725 CURVE SMOOTH",
"535 796 OFFCURVE",
"591 855 OFFCURVE",
"664 855 CURVE SMOOTH",
"736 855 OFFCURVE",
"794 797 OFFCURVE",
"794 725 CURVE SMOOTH",
"794 650 OFFCURVE",
"735 596 OFFCURVE",
"664 596 CURVE SMOOTH"
);
}
);
width = 976;
}
);
note = uni1934;
unicode = 1934;
},
{
glyphname = uni1935;
lastChange = "2016-11-10 14:32:00 +0000";
layers = (
{
layerId = "FD774C02-F907-4516-A1AC-61C4D0AB20C5";
paths = (
{
closed = 1;
nodes = (
"903 40 LINE",
"903 1190 LINE",
"738 1140 LINE",
"738 552 LINE",
"655 494 OFFCURVE",
"556 465 OFFCURVE",
"443 465 CURVE SMOOTH",
"322 465 OFFCURVE",
"259 533 OFFCURVE",
"259 686 CURVE SMOOTH",
"259 834 LINE SMOOTH",
"259 931 OFFCURVE",
"252 1002 OFFCURVE",
"237 1049 CURVE SMOOTH",
"207 1141 OFFCURVE",
"143 1180 OFFCURVE",
"16 1180 CURVE SMOOTH",
"-30 1180 LINE",
"-80 1032 LINE",
"0 1032 LINE SMOOTH",
"61 1032 OFFCURVE",
"91 979 OFFCURVE",
"91 874 CURVE SMOOTH",
"91 665 LINE SMOOTH",
"91 466 OFFCURVE",
"192 367 OFFCURVE",
"393 367 CURVE SMOOTH",
"518 367 OFFCURVE",
"671 418 OFFCURVE",
"738 466 CURVE",
"738 -10 LINE"
);
}
);
width = 1053;
}
);
note = uni1935;
unicode = 1935;
},
{
glyphname = uni1936;
lastChange = "2016-11-10 14:32:00 +0000";
layers = (
{
layerId = "FD774C02-F907-4516-A1AC-61C4D0AB20C5";
paths = (
{
closed = 1;
nodes = (
"565 40 LINE",
"565 535 LINE",
"635 546 OFFCURVE",
"698 570 OFFCURVE",
"753 605 CURVE SMOOTH",
"863 676 OFFCURVE",
"930 787 OFFCURVE",
"930 928 CURVE SMOOTH",
"930 1097 OFFCURVE",
"855 1196 OFFCURVE",
"716 1196 CURVE SMOOTH",
"666 1196 OFFCURVE",
"616 1176 OFFCURVE",
"566 1137 CURVE SMOOTH",
"466 1058 OFFCURVE",
"401 917 OFFCURVE",
"401 770 CURVE SMOOTH",
"401 681 LINE",
"250 693 OFFCURVE",
"189 744 OFFCURVE",
"189 852 CURVE SMOOTH",
"189 890 LINE SMOOTH",
"189 971 OFFCURVE",
"184 1030 OFFCURVE",
"173 1068 CURVE SMOOTH",
"151 1144 OFFCURVE",
"103 1180 OFFCURVE",
"16 1180 CURVE SMOOTH",
"-30 1180 LINE",
"-80 1032 LINE",
"0 1032 LINE SMOOTH",
"61 1032 OFFCURVE",
"91 989 OFFCURVE",
"91 902 CURVE SMOOTH",
"91 855 LINE SMOOTH",
"91 650 OFFCURVE",
"173 551 OFFCURVE",
"401 532 CURVE",
"401 -10 LINE"
);
},
{
closed = 1;
nodes = (
"565 883 LINE SMOOTH",
"565 984 OFFCURVE",
"600 1048 OFFCURVE",
"661 1048 CURVE SMOOTH",
"721 1048 OFFCURVE",
"762 991 OFFCURVE",
"762 918 CURVE SMOOTH",
"762 787 OFFCURVE",
"692 706 OFFCURVE",
"565 682 CURVE"
);
}
);
width = 1030;
}
);
note = uni1936;
unicode = 1936;
},
{
glyphname = uni1937;
lastChange = "2016-11-10 14:32:00 +0000";
layers = (
{
layerId = "FD774C02-F907-4516-A1AC-61C4D0AB20C5";
paths = (
{
closed = 1;
nodes = (
"227 -415 LINE",
"-76 20 LINE",
"-200 -76 LINE",
"140 -482 LINE"
);
}
);
width = 227;
}
);
note = uni1937;
unicode = 1937;
},
{
glyphname = uni1938;
lastChange = "2016-11-10 14:32:00 +0000";
layers = (
{
layerId = "FD774C02-F907-4516-A1AC-61C4D0AB20C5";
paths = (
{
closed = 1;
nodes = (
"334 516 OFFCURVE",
"389 534 OFFCURVE",
"442 571 CURVE SMOOTH",
"547 644 OFFCURVE",
"613 780 OFFCURVE",
"613 929 CURVE SMOOTH",
"613 1190 LINE",
"449 1140 LINE",
"449 847 LINE SMOOTH",
"449 687 OFFCURVE",
"402 614 OFFCURVE",
"293 614 CURVE SMOOTH",
"193 614 OFFCURVE",
"164 685 OFFCURVE",
"164 849 CURVE SMOOTH",
"164 1190 LINE",
"0 1140 LINE",
"0 783 LINE SMOOTH",
"0 602 OFFCURVE",
"88 516 OFFCURVE",
"275 516 CURVE SMOOTH"
);
}
);
width = 663;
}
);
note = uni1938;
unicode = 1938;
},
{
glyphname = uni1939;
lastChange = "2016-11-10 14:32:00 +0000";
layers = (
{
layerId = "FD774C02-F907-4516-A1AC-61C4D0AB20C5";
paths = (
{
closed = 1;
nodes = (
"227 -76 LINE",
"103 20 LINE",
"-200 -415 LINE",
"-113 -482 LINE"
);
}
);
width = 227;
}
);
note = uni1939;
unicode = 1939;
},
{
glyphname = uni193A;
lastChange = "2016-11-10 14:32:00 +0000";
layers = (
{
layerId = "FD774C02-F907-4516-A1AC-61C4D0AB20C5";
paths = (
{
closed = 1;
nodes = (
"-51 1500 OFFCURVE",
"0 1551 OFFCURVE",
"0 1611 CURVE SMOOTH",
"0 1671 OFFCURVE",
"-51 1722 OFFCURVE",
"-111 1722 CURVE SMOOTH",
"-171 1722 OFFCURVE",
"-222 1671 OFFCURVE",
"-222 1611 CURVE SMOOTH",
"-222 1551 OFFCURVE",
"-171 1500 OFFCURVE",
"-111 1500 CURVE SMOOTH"
);
},
{
closed = 1;
nodes = (
"-415 1500 OFFCURVE",
"-364 1551 OFFCURVE",
"-364 1611 CURVE SMOOTH",
"-364 1671 OFFCURVE",
"-415 1722 OFFCURVE",
"-475 1722 CURVE SMOOTH",
"-535 1722 OFFCURVE",
"-586 1671 OFFCURVE",
"-586 1611 CURVE SMOOTH",
"-586 1551 OFFCURVE",
"-535 1500 OFFCURVE",
"-475 1500 CURVE SMOOTH"
);
}
);
width = 0;
}
);
note = uni193A;
unicode = 193A;
},
{
glyphname = uni193B;
lastChange = "2016-11-10 14:15:21 +0000";
layers = (
{
layerId = "FD774C02-F907-4516-A1AC-61C4D0AB20C5";
paths = (
{
closed = 1;
nodes = (
"-100 -303 LINE",
"-100 -175 LINE",
"-1162 -175 LINE",
"-1162 -303 LINE"
);
}
);
width = 0;
}
);
note = uni193B;
unicode = 193B;
},
{
glyphname = uni1940;
lastChange = "2016-11-10 14:32:00 +0000";
layers = (
{
layerId = "FD774C02-F907-4516-A1AC-61C4D0AB20C5";
paths = (
{
closed = 1;
nodes = (
"841 -15 OFFCURVE",
"1046 143 OFFCURVE",
"1046 360 CURVE SMOOTH",
"1046 404 OFFCURVE",
"1036 446 OFFCURVE",
"1015 485 CURVE SMOOTH",
"973 563 OFFCURVE",
"896 612 OFFCURVE",
"793 612 CURVE SMOOTH",
"645 612 OFFCURVE",
"538 498 OFFCURVE",
"538 350 CURVE SMOOTH",
"538 271 OFFCURVE",
"576 200 OFFCURVE",
"652 137 CURVE",
"621 134 OFFCURVE",
"590 133 OFFCURVE",
"558 133 CURVE SMOOTH",
"499 133 OFFCURVE",
"446 148 OFFCURVE",
"399 177 CURVE SMOOTH",
"306 236 OFFCURVE",
"248 349 OFFCURVE",
"248 513 CURVE SMOOTH",
"248 770 OFFCURVE",
"364 972 OFFCURVE",
"600 1137 CURVE",
"554 1195 LINE",
"254 998 OFFCURVE",
"80 740 OFFCURVE",
"80 484 CURVE SMOOTH",
"80 384 OFFCURVE",
"100 297 OFFCURVE",
"139 222 CURVE SMOOTH",
"218 72 OFFCURVE",
"368 -15 OFFCURVE",
"548 -15 CURVE SMOOTH"
);
},
{
closed = 1;
nodes = (
"713 215 OFFCURVE",
"657 275 OFFCURVE",
"657 350 CURVE SMOOTH",
"657 417 OFFCURVE",
"702 464 OFFCURVE",
"771 464 CURVE SMOOTH",
"836 464 OFFCURVE",
"878 423 OFFCURVE",
"878 359 CURVE SMOOTH",
"878 274 OFFCURVE",
"847 213 OFFCURVE",
"785 176 CURVE"
);
}
);
width = 1126;
}
);
note = uni1940;
unicode = 1940;
},
{
glyphname = uni1944;
lastChange = "2016-11-10 14:32:00 +0000";
layers = (
{
layerId = "FD774C02-F907-4516-A1AC-61C4D0AB20C5";
paths = (
{
closed = 1;
nodes = (
"721 70 LINE",
"721 842 LINE SMOOTH",
"721 1175 OFFCURVE",
"600 1340 OFFCURVE",
"376 1340 CURVE SMOOTH",
"325 1340 OFFCURVE",
"280 1330 OFFCURVE",
"241 1309 CURVE SMOOTH",
"164 1267 OFFCURVE",
"120 1186 OFFCURVE",
"120 1097 CURVE SMOOTH",
"120 1007 OFFCURVE",
"156 935 OFFCURVE",
"227 880 CURVE",
"287 969 LINE",
"235 1025 OFFCURVE",
"227 1056 OFFCURVE",
"227 1099 CURVE SMOOTH",
"227 1132 OFFCURVE",
"234 1158 OFFCURVE",
"248 1179 CURVE SMOOTH",
"275 1219 OFFCURVE",
"322 1242 OFFCURVE",
"367 1242 CURVE SMOOTH",
"454 1242 OFFCURVE",
"509 1193 OFFCURVE",
"537 1092 CURVE SMOOTH",
"550 1041 OFFCURVE",
"557 962 OFFCURVE",
"557 853 CURVE SMOOTH",
"557 0 LINE"
);
},
{
closed = 1;
nodes = (
"696 -333 OFFCURVE",
"741 -280 OFFCURVE",
"741 -216 CURVE SMOOTH",
"741 -152 OFFCURVE",
"695 -100 OFFCURVE",
"639 -100 CURVE SMOOTH",
"582 -100 OFFCURVE",
"536 -152 OFFCURVE",
"536 -216 CURVE SMOOTH",
"536 -280 OFFCURVE",
"582 -333 OFFCURVE",
"639 -333 CURVE SMOOTH"
);
}
);
width = 901;
}
);
note = uni1944;
unicode = 1944;
},
{
glyphname = uni1945;
lastChange = "2016-11-10 14:32:00 +0000";
layers = (
{
layerId = "FD774C02-F907-4516-A1AC-61C4D0AB20C5";
paths = (
{
closed = 1;
nodes = (
"496 70 LINE",
"496 726 LINE SMOOTH",
"496 868 OFFCURVE",
"501 972 OFFCURVE",
"512 1038 CURVE SMOOTH",
"533 1170 OFFCURVE",
"577 1242 OFFCURVE",
"656 1242 CURVE SMOOTH",
"723 1242 OFFCURVE",
"777 1186 OFFCURVE",
"777 1111 CURVE SMOOTH",
"777 1066 OFFCURVE",
"761 1030 OFFCURVE",
"728 1005 CURVE",
"792 924 LINE",
"848 964 OFFCURVE",
"884 1031 OFFCURVE",
"884 1108 CURVE SMOOTH",
"884 1245 OFFCURVE",
"786 1340 OFFCURVE",
"649 1340 CURVE SMOOTH",
"489 1340 OFFCURVE",
"390 1256 OFFCURVE",
"363 1093 CURVE",
"315 1192 OFFCURVE",
"258 1265 OFFCURVE",
"166 1340 CURVE",
"120 1296 LINE",
"168 1251 OFFCURVE",
"208 1196 OFFCURVE",
"240 1130 CURVE SMOOTH",
"304 997 OFFCURVE",
"332 828 OFFCURVE",
"332 525 CURVE SMOOTH",
"332 0 LINE"
);
},
{
closed = 1;
nodes = (
"471 -333 OFFCURVE",
"516 -280 OFFCURVE",
"516 -216 CURVE SMOOTH",
"516 -152 OFFCURVE",
"470 -100 OFFCURVE",
"414 -100 CURVE SMOOTH",
"357 -100 OFFCURVE",
"311 -152 OFFCURVE",
"311 -216 CURVE SMOOTH",
"311 -280 OFFCURVE",
"357 -333 OFFCURVE",
"414 -333 CURVE SMOOTH"
);
}
);
width = 984;
}
);
note = uni1945;
unicode = 1945;
},
{
glyphname = uni1946;
lastChange = "2016-11-10 14:32:00 +0000";
layers = (
{
layerId = "FD774C02-F907-4516-A1AC-61C4D0AB20C5";
paths = (
{
closed = 1;
nodes = (
"628 -15 OFFCURVE",
"710 14 OFFCURVE",
"788 73 CURVE SMOOTH",
"944 189 OFFCURVE",
"1045 398 OFFCURVE",
"1045 610 CURVE SMOOTH",
"1045 981 OFFCURVE",
"876 1194 OFFCURVE",
"584 1194 CURVE SMOOTH",
"500 1194 OFFCURVE",
"418 1164 OFFCURVE",
"339 1105 CURVE SMOOTH",
"180 985 OFFCURVE",
"80 773 OFFCURVE",
"80 548 CURVE SMOOTH",
"80 197 OFFCURVE",
"254 -15 OFFCURVE",
"542 -15 CURVE SMOOTH"
);
},
{
closed = 1;
nodes = (
"369 110 OFFCURVE",
"248 286 OFFCURVE",
"248 590 CURVE SMOOTH",
"248 903 OFFCURVE",
"356 1069 OFFCURVE",
"552 1069 CURVE SMOOTH",
"752 1069 OFFCURVE",
"877 887 OFFCURVE",
"877 590 CURVE SMOOTH",
"877 269 OFFCURVE",
"771 110 OFFCURVE",
"574 110 CURVE SMOOTH"
);
}
);
width = 1125;
}
);
note = uni1946;
unicode = 1946;
},
{
glyphname = uni1947;
lastChange = "2016-11-10 14:32:00 +0000";
layers = (
{
layerId = "FD774C02-F907-4516-A1AC-61C4D0AB20C5";
paths = (
{
closed = 1;
nodes = (
"655 -15 OFFCURVE",
"717 -2 OFFCURVE",
"771 24 CURVE SMOOTH",
"879 75 OFFCURVE",
"942 173 OFFCURVE",
"942 282 CURVE SMOOTH",
"942 413 OFFCURVE",
"834 524 OFFCURVE",
"694 524 CURVE SMOOTH",
"543 524 OFFCURVE",
"437 414 OFFCURVE",
"437 257 CURVE SMOOTH",
"437 207 OFFCURVE",
"451 159 OFFCURVE",
"479 114 CURVE",
"356 166 OFFCURVE",
"294 296 OFFCURVE",
"294 547 CURVE SMOOTH",
"294 1180 LINE",
"130 1110 LINE",
"130 500 LINE SMOOTH",
"130 157 OFFCURVE",
"281 -15 OFFCURVE",
"584 -15 CURVE SMOOTH"
);
},
{
closed = 1;
nodes = (
"592 116 OFFCURVE",
"539 178 OFFCURVE",
"539 255 CURVE SMOOTH",
"539 334 OFFCURVE",
"592 394 OFFCURVE",
"659 394 CURVE SMOOTH",
"724 394 OFFCURVE",
"780 334 OFFCURVE",
"780 255 CURVE SMOOTH",
"780 176 OFFCURVE",
"724 116 OFFCURVE",
"659 116 CURVE SMOOTH"
);
}
);
width = 1022;
}
);
note = uni1947;
unicode = 1947;
},
{
glyphname = uni1948;
lastChange = "2016-11-10 14:32:00 +0000";
layers = (
{
layerId = "FD774C02-F907-4516-A1AC-61C4D0AB20C5";
paths = (
{
closed = 1;
nodes = (
"245 40 LINE",
"287 344 OFFCURVE",
"361 646 OFFCURVE",
"466 947 CURVE",
"537 699 OFFCURVE",
"646 380 OFFCURVE",
"793 -10 CURVE",
"978 30 LINE",
"889 218 OFFCURVE",
"677 777 OFFCURVE",
"549 1190 CURVE",
"433 1065 LINE",
"282 735 OFFCURVE",
"151 377 OFFCURVE",
"40 -10 CURVE"
);
}
);
width = 1018;
}
);
note = uni1948;
unicode = 1948;
},
{
glyphname = uni1949;
lastChange = "2016-11-10 14:32:00 +0000";
layers = (
{
layerId = "FD774C02-F907-4516-A1AC-61C4D0AB20C5";
paths = (
{
closed = 1;
nodes = (
"473 -15 OFFCURVE",
"614 44 OFFCURVE",
"711 124 CURVE SMOOTH",
"808 203 OFFCURVE",
"864 299 OFFCURVE",
"864 399 CURVE SMOOTH",
"864 494 OFFCURVE",
"826 554 OFFCURVE",
"768 595 CURVE SMOOTH",
"710 636 OFFCURVE",
"633 658 OFFCURVE",
"556 678 CURVE SMOOTH",
"479 697 OFFCURVE",
"403 715 OFFCURVE",
"345 745 CURVE SMOOTH",
"287 775 OFFCURVE",
"248 819 OFFCURVE",
"248 892 CURVE SMOOTH",
"248 992 OFFCURVE",
"324 1057 OFFCURVE",
"451 1057 CURVE SMOOTH",
"544 1057 OFFCURVE",
"621 1031 OFFCURVE",
"681 978 CURVE",
"826 1097 LINE",
"751 1162 OFFCURVE",
"648 1195 OFFCURVE",
"515 1195 CURVE SMOOTH",
"453 1195 OFFCURVE",
"385 1175 OFFCURVE",
"312 1135 CURVE SMOOTH",
"165 1055 OFFCURVE",
"80 939 OFFCURVE",
"80 826 CURVE SMOOTH",
"80 781 OFFCURVE",
"90 744 OFFCURVE",
"111 714 CURVE SMOOTH",
"152 653 OFFCURVE",
"212 617 OFFCURVE",
"388 573 CURVE SMOOTH",
"489 548 OFFCURVE",
"556 527 OFFCURVE",
"589 510 CURVE SMOOTH",
"656 477 OFFCURVE",
"696 431 OFFCURVE",
"696 358 CURVE SMOOTH",
"696 201 OFFCURVE",
"613 123 OFFCURVE",
"448 123 CURVE SMOOTH",
"403 123 OFFCURVE",
"365 128 OFFCURVE",
"333 139 CURVE SMOOTH",
"268 159 OFFCURVE",
"226 186 OFFCURVE",
"166 258 CURVE",
"94 87 LINE",
"159 27 OFFCURVE",
"277 -15 OFFCURVE",
"384 -15 CURVE SMOOTH"
);
}
);
width = 944;
}
);
note = uni1949;
unicode = 1949;
},
{
glyphname = uni194A;
lastChange = "2016-11-10 14:32:00 +0000";
layers = (
{
layerId = "FD774C02-F907-4516-A1AC-61C4D0AB20C5";
paths = (
{
closed = 1;
nodes = (
"186 0 LINE",
"292 173 OFFCURVE",
"398 338 OFFCURVE",
"504 496 CURVE",
"605 354 OFFCURVE",
"715 185 OFFCURVE",
"834 -10 CURVE",
"984 104 LINE",
"885 260 OFFCURVE",
"759 443 OFFCURVE",
"607 652 CURVE",
"714 808 OFFCURVE",
"835 982 OFFCURVE",
"971 1174 CURVE",
"959 1187 LINE",
"827 1180 LINE",
"735 1023 OFFCURVE",
"642 874 OFFCURVE",
"549 731 CURVE",
"402 928 OFFCURVE",
"281 1081 OFFCURVE",
"184 1190 CURVE",
"40 1076 LINE",
"175 925 OFFCURVE",
"311 758 OFFCURVE",
"447 574 CURVE",
"327 392 OFFCURVE",
"194 201 OFFCURVE",
"48 2 CURVE",
"53 -11 LINE"
);
}
);
width = 1024;
}
);
note = uni194A;
unicode = 194A;
},
{
glyphname = uni194B;
lastChange = "2016-11-10 14:32:00 +0000";
layers = (
{
layerId = "FD774C02-F907-4516-A1AC-61C4D0AB20C5";
paths = (
{
closed = 1;
nodes = (
"639 -15 OFFCURVE",
"697 -3 OFFCURVE",
"749 20 CURVE SMOOTH",
"853 67 OFFCURVE",
"917 153 OFFCURVE",
"917 237 CURVE SMOOTH",
"917 356 OFFCURVE",
"839 437 OFFCURVE",
"722 437 CURVE SMOOTH",
"585 437 OFFCURVE",
"490 349 OFFCURVE",
"490 220 CURVE SMOOTH",
"490 177 OFFCURVE",
"499 142 OFFCURVE",
"518 113 CURVE",
"323 185 OFFCURVE",
"248 314 OFFCURVE",
"248 561 CURVE SMOOTH",
"248 824 OFFCURVE",
"331 998 OFFCURVE",
"498 1083 CURVE",
"479 1054 OFFCURVE",
"470 1014 OFFCURVE",
"470 961 CURVE SMOOTH",
"470 836 OFFCURVE",
"548 753 OFFCURVE",
"676 753 CURVE SMOOTH",
"719 753 OFFCURVE",
"758 763 OFFCURVE",
"791 782 CURVE SMOOTH",
"857 820 OFFCURVE",
"894 892 OFFCURVE",
"894 969 CURVE SMOOTH",
"894 1106 OFFCURVE",
"794 1195 OFFCURVE",
"634 1195 CURVE SMOOTH",
"517 1195 OFFCURVE",
"366 1112 OFFCURVE",
"255 987 CURVE SMOOTH",
"144 862 OFFCURVE",
"80 700 OFFCURVE",
"80 533 CURVE SMOOTH",
"80 419 OFFCURVE",
"100 321 OFFCURVE",
"141 239 CURVE SMOOTH",
"222 75 OFFCURVE",
"377 -15 OFFCURVE",
"574 -15 CURVE SMOOTH"
);
},
{
closed = 1;
nodes = (
"614 123 OFFCURVE",
"592 165 OFFCURVE",
"592 216 CURVE SMOOTH",
"592 287 OFFCURVE",
"632 317 OFFCURVE",
"683 317 CURVE SMOOTH",
"744 317 OFFCURVE",
"774 287 OFFCURVE",
"774 226 CURVE SMOOTH",
"774 169 OFFCURVE",
"717 116 OFFCURVE",
"642 116 CURVE"
);
},
{
closed = 1;
nodes = (
"612 873 OFFCURVE",
"572 909 OFFCURVE",
"572 980 CURVE SMOOTH",
"572 1031 OFFCURVE",
"594 1067 OFFCURVE",
"622 1074 CURVE",
"698 1074 OFFCURVE",
"754 1021 OFFCURVE",
"754 964 CURVE SMOOTH",
"754 903 OFFCURVE",
"724 873 OFFCURVE",
"663 873 CURVE SMOOTH"
);
}
);
width = 997;
}
);
note = uni194B;
unicode = 194B;
},
{
glyphname = uni194C;
lastChange = "2016-11-10 14:32:00 +0000";
layers = (
{
layerId = "FD774C02-F907-4516-A1AC-61C4D0AB20C5";
paths = (
{
closed = 1;
nodes = (
"690 -80 LINE",
"647 -3 OFFCURVE",
"614 81 OFFCURVE",
"590 173 CURVE",
"801 185 OFFCURVE",
"928 290 OFFCURVE",
"928 450 CURVE SMOOTH",
"928 570 OFFCURVE",
"844 651 OFFCURVE",
"711 651 CURVE SMOOTH",
"664 651 OFFCURVE",
"620 639 OFFCURVE",
"578 615 CURVE SMOOTH",
"493 567 OFFCURVE",
"438 479 OFFCURVE",
"438 394 CURVE SMOOTH",
"438 356 OFFCURVE",
"440 323 OFFCURVE",
"443 294 CURVE",
"322 346 OFFCURVE",
"248 487 OFFCURVE",
"248 667 CURVE SMOOTH",
"248 742 OFFCURVE",
"259 806 OFFCURVE",
"281 861 CURVE SMOOTH",
"324 969 OFFCURVE",
"406 1032 OFFCURVE",
"498 1032 CURVE SMOOTH",
"791 1032 LINE",
"841 1180 LINE",
"680 1180 LINE SMOOTH",
"312 1180 OFFCURVE",
"80 977 OFFCURVE",
"80 650 CURVE SMOOTH",
"80 405 OFFCURVE",
"230 221 OFFCURVE",
"459 180 CURVE",
"478 65 OFFCURVE",
"521 -78 OFFCURVE",
"550 -131 CURVE"
);
},
{
closed = 1;
nodes = (
"560 315 OFFCURVE",
"556 361 OFFCURVE",
"556 408 CURVE SMOOTH",
"556 496 OFFCURVE",
"603 553 OFFCURVE",
"670 553 CURVE SMOOTH",
"737 553 OFFCURVE",
"780 513 OFFCURVE",
"780 429 CURVE SMOOTH",
"780 325 OFFCURVE",
"709 272 OFFCURVE",
"568 270 CURVE"
);
}
);
width = 1008;
}
);
note = uni194C;
unicode = 194C;
},
{
glyphname = uni194D;
lastChange = "2016-11-10 14:32:00 +0000";
layers = (
{
layerId = "FD774C02-F907-4516-A1AC-61C4D0AB20C5";
paths = (
{
closed = 1;
nodes = (
"500 -15 OFFCURVE",
"570 5 OFFCURVE",
"654 46 CURVE SMOOTH",
"822 126 OFFCURVE",
"925 241 OFFCURVE",
"925 348 CURVE SMOOTH",
"925 435 OFFCURVE",
"881 500 OFFCURVE",
"806 556 CURVE SMOOTH",
"769 584 OFFCURVE",
"699 621 OFFCURVE",
"596 668 CURVE",
"689 739 OFFCURVE",
"755 794 OFFCURVE",
"793 831 CURVE SMOOTH",
"869 906 OFFCURVE",
"917 977 OFFCURVE",
"928 1050 CURVE",
"769 1005 LINE",
"731 915 OFFCURVE",
"647 815 OFFCURVE",
"518 705 CURVE",
"355 781 OFFCURVE",
"289 855 OFFCURVE",
"289 952 CURVE SMOOTH",
"289 1044 OFFCURVE",
"371 1107 OFFCURVE",
"502 1107 CURVE SMOOTH",
"521 1107 LINE",
"539 1106 LINE",
"630 1196 LINE",
"604 1195 LINE",
"576 1195 LINE SMOOTH",
"506 1195 OFFCURVE",
"433 1180 OFFCURVE",
"356 1149 CURVE SMOOTH",
"203 1088 OFFCURVE",
"121 993 OFFCURVE",
"121 886 CURVE SMOOTH",
"121 771 OFFCURVE",
"187 683 OFFCURVE",
"378 590 CURVE",
"281 511 OFFCURVE",
"216 454 OFFCURVE",
"183 421 CURVE SMOOTH",
"118 354 OFFCURVE",
"80 295 OFFCURVE",
"80 242 CURVE SMOOTH",
"80 82 OFFCURVE",
"221 -15 OFFCURVE",
"445 -15 CURVE SMOOTH"
);
},
{
closed = 1;
nodes = (
"335 123 OFFCURVE",
"248 177 OFFCURVE",
"248 284 CURVE SMOOTH",
"248 361 OFFCURVE",
"307 443 OFFCURVE",
"451 556 CURVE",
"490 538 OFFCURVE",
"527 521 OFFCURVE",
"564 504 CURVE SMOOTH",
"601 487 OFFCURVE",
"633 469 OFFCURVE",
"662 450 CURVE SMOOTH",
"719 412 OFFCURVE",
"757 367 OFFCURVE",
"757 307 CURVE SMOOTH",
"757 195 OFFCURVE",
"666 123 OFFCURVE",
"509 123 CURVE SMOOTH"
);
}
);
width = 1008;
}
);
note = uni194D;
unicode = 194D;
},
{
glyphname = uni194E;
lastChange = "2016-11-10 14:32:00 +0000";
layers = (
{
layerId = "FD774C02-F907-4516-A1AC-61C4D0AB20C5";
paths = (
{
closed = 1;
nodes = (
"585 115 LINE",
"740 459 OFFCURVE",
"871 817 OFFCURVE",
"978 1190 CURVE",
"773 1140 LINE",
"723 813 OFFCURVE",
"649 511 OFFCURVE",
"552 232 CURVE",
"453 572 OFFCURVE",
"333 898 OFFCURVE",
"225 1190 CURVE",
"40 1150 LINE",
"172 855 OFFCURVE",
"356 357 OFFCURVE",
"469 -10 CURVE"
);
}
);
width = 1018;
}
);
note = uni194E;
unicode = 194E;
},
{
glyphname = uni194F;
lastChange = "2016-11-10 14:32:00 +0000";
layers = (
{
layerId = "FD774C02-F907-4516-A1AC-61C4D0AB20C5";
paths = (
{
closed = 1;
nodes = (
"676 30 LINE",
"686 103 OFFCURVE",
"704 197 OFFCURVE",
"731 312 CURVE SMOOTH",
"784 543 OFFCURVE",
"844 761 OFFCURVE",
"988 1180 CURVE",
"208 1180 LINE",
"60 1032 LINE",
"109 914 OFFCURVE",
"184 716 OFFCURVE",
"283 439 CURVE",
"453 534 LINE",
"477 621 OFFCURVE",
"518 745 OFFCURVE",
"576 907 CURVE SMOOTH",
"620 1032 LINE",
"852 1032 LINE",
"699 690 OFFCURVE",
"573 343 OFFCURVE",
"472 -10 CURVE"
);
},
{
closed = 1;
nodes = (
"344 770 OFFCURVE",
"301 891 OFFCURVE",
"248 1032 CURVE",
"532 1032 LINE",
"466 883 OFFCURVE",
"415 761 OFFCURVE",
"379 667 CURVE"
);
}
);
width = 1008;
}
);
note = uni194F;
unicode = 194F;
},
{
glyphname = uni192A1922;
lastChange = "2016-11-10 14:32:04 +0000";
layers = (
{
layerId = "FD774C02-F907-4516-A1AC-61C4D0AB20C5";
paths = (
{
closed = 1;
nodes = (
"-118 -600 OFFCURVE",
"-25 -565 OFFCURVE",
"52 -508 CURVE SMOOTH",
"129 -451 OFFCURVE",
"192 -369 OFFCURVE",
"243 -276 CURVE SMOOTH",
"294 -183 OFFCURVE",
"333 -77 OFFCURVE",
"361 31 CURVE",
"287 22 LINE",
"247 -89 OFFCURVE",
"203 -197 OFFCURVE",
"136 -282 CURVE SMOOTH",
"69 -367 OFFCURVE",
"-19 -428 OFFCURVE",
"-147 -445 CURVE",
"-144 -433 OFFCURVE",
"-142 -417 OFFCURVE",
"-142 -406 CURVE SMOOTH",
"-142 -362 OFFCURVE",
"-160 -317 OFFCURVE",
"-191 -283 CURVE SMOOTH",
"-222 -249 OFFCURVE",
"-263 -227 OFFCURVE",
"-310 -227 CURVE SMOOTH",
"-363 -227 OFFCURVE",
"-409 -246 OFFCURVE",
"-441 -278 CURVE SMOOTH",
"-473 -310 OFFCURVE",
"-492 -355 OFFCURVE",
"-492 -406 CURVE SMOOTH",
"-492 -454 OFFCURVE",
"-471 -503 OFFCURVE",
"-427 -539 CURVE SMOOTH",
"-384 -575 OFFCURVE",
"-318 -600 OFFCURVE",
"-226 -600 CURVE SMOOTH"
);
},
{
closed = 1;
nodes = (
"-352 -461 OFFCURVE",
"-381 -433 OFFCURVE",
"-381 -398 CURVE SMOOTH",
"-381 -362 OFFCURVE",
"-352 -333 OFFCURVE",
"-317 -333 CURVE SMOOTH",
"-281 -333 OFFCURVE",
"-253 -362 OFFCURVE",
"-253 -398 CURVE SMOOTH",
"-253 -433 OFFCURVE",
"-281 -461 OFFCURVE",
"-317 -461 CURVE SMOOTH"
);
},
{
closed = 1;
nodes = (
"104 -189 LINE",
"53 -174 OFFCURVE",
"-15 -151 OFFCURVE",
"-73 -116 CURVE SMOOTH",
"-131 -81 OFFCURVE",
"-180 -35 OFFCURVE",
"-189 28 CURVE",
"-230 48 LINE",
"-282 -11 OFFCURVE",
"-348 -64 OFFCURVE",
"-408 -105 CURVE SMOOTH",
"-469 -146 OFFCURVE",
"-525 -178 OFFCURVE",
"-557 -195 CURVE",
"-520 -270 LINE",
"-487 -253 OFFCURVE",
"-432 -219 OFFCURVE",
"-383 -186 CURVE SMOOTH",
"-335 -153 OFFCURVE",
"-290 -120 OFFCURVE",
"-271 -103 CURVE",
"-254 -154 OFFCURVE",
"-204 -201 OFFCURVE",
"-147 -240 CURVE SMOOTH",
"-91 -279 OFFCURVE",
"-25 -309 OFFCURVE",
"23 -325 CURVE"
);
}
);
width = 0;
}
);
note = uni192A1922;
},
{
glyphname = "danda-deva";
lastChange = "2016-11-10 14:32:04 +0000";
layers = (
{
layerId = "FD774C02-F907-4516-A1AC-61C4D0AB20C5";
paths = (
{
closed = 1;
nodes = (
"464 40 LINE",
"464 1210 LINE",
"300 1140 LINE",
"300 -30 LINE"
);
}
);
width = 764;
}
);
note = danda;
unicode = 0964;
},
{
glyphname = "dbldanda-deva";
lastChange = "2016-11-10 14:32:04 +0000";
layers = (
{
layerId = "FD774C02-F907-4516-A1AC-61C4D0AB20C5";
paths = (
{
closed = 1;
nodes = (
"804 40 LINE",
"804 1210 LINE",
"640 1140 LINE",
"640 -30 LINE"
);
},
{
closed = 1;
nodes = (
"464 40 LINE",
"464 1210 LINE",
"300 1140 LINE",
"300 -30 LINE"
);
}
);
width = 1104;
}
);
note = doubledanda;
unicode = 0965;
},
